<?xml version="1.0" encoding="UTF-8"?><svg id="Layer_1" xmlns="http://www.w3.org/2000/svg" viewBox="0 0 2400 2100"><path d="M1681,872l-4-3.7c.8,1.7,1.4,3.9,4,3.7Z" style="fill:#c8c0b9;"/><path d="M1492.2,922.5c7.8,0,15.6-.2,23.5-.4,1,0,2-.3,2.8-.7,1.8-1.2,1.6-2.5-.3-3.5-.3-.2-1.3.1-1.4-.1-3.1-4.6-6-5.6-9.4-.2-.2.4-3.2-.3-4.2-1.2-.8-.7-.7-2.7-.6-4,0-.3,1.8-.5,2.8-.7-.4.6-.8,1.1-1,1.7-.2.7-.4,2-.2,2.1.8.3,2,.7,2.6.3,2.1-1.3,2.4-3.4,1.8-5.7-.9-3.6-3.9-5.1-6.6-7-5.8-.4-6.6,7-6.6,10.5-2.4.3-4.9,0-6,1-1.3,1.2-1.8,3.9-1.5,5.8.2,1,2.8,2.2,4.4,2.2Z" style="fill:#c8c0b9;"/><path d="M1683.9,1169.4c-2.6-13.5-5.2-27-7.9-40.5-.9.3-1.6.8-2.1,1.3-2.9-11.3-5.9-22.5-8.8-33.8-.1.2-.2.5-.3.7-2.7-10.4-5.4-20.8-8.1-31.2.5,0,.9,0,1.4,0-.7-2.7-1.4-5.4-2.1-8.2-2.7-10.3-5.4-20.6-8-31,0-.4,0-.9-.2-1.4-4.7-22.7-10.2-45.2-15.1-67.9-.6-2.8-2.4-3.3-4.6-3.6-4.4-.6-8.8-1.2-13.3-1.8.6-.2,1.1-.3,1.7-.5-1.9,0-3.8,0-5.7,0-.8-.1-1.6-.2-2.4-.3,0,0,0,.2.1.3-9.7-.2-19.3-1-28.9-1.9.5-.3,1-.8,1.4-1.5,2-.6,3.9-1.2,5.9-1.8-9.7,0-19.4-.4-29-1.3,1-.5,2-1.2,3-2-2-.7-3.5.2-1.7-2.4,2.7-5,1.3-7.7-4.3-8.2-1-.1-2.1-1.2-2.9-2-6.6-9.2-11.9-2-20.2-1.9-.3,0-.7.3-.8.5-1.5,2.9-4.1,4.3-6.9,5.7-1.6,1.5-1.7,2.6-2.2,3.2-21.5.2-42.7-2.7-64-4.8,0,0,0,0,0,0-14.2-2.2-28.5-5.7-42.9-5.9-7.6.2-15.2,1.9-22.7,3.4-4.5.9-8.1.6-10.1-4.2-1.6-3-5.4-6.4-8.1-2.8-3.9,3.9-5.1,10.9-11.6,11.2-8.8,1-17.5,2.1-26.2,3.5-2.6.4-4.6,0-6.4-1.8-2.8-2.6-5.5-5.3-8.2-8-3.1-3.1-4.4-3.4-7.6-.5-6.6,4.9-10.5,14.6-19.2,15.9-8.8.9-17.5,2.1-26.3,3.2-21.3,2.5-42.6,5.3-64,7.5-12.5,1.3-24.9,4.3-37.7,1.6-12.2-2.6-24.6-4.1-36.9-6.1-1.7-2.1-3.2-4.3-5.2-6.1-.5-.4-3.3.5-3.4,1.1-.4,3.4-2.8,3.3-5.1,3.1-3.3-.3-6.6-.7-9.9-1.2-.7-.1-1.8-1-1.9-1.6-.6-3.8-1.8-7.2-4.1-10.5-1.9-2.6-2.2-2.9-4.6.2-3.9,1.8-3.5,4.9-2.4,8.2h0c-1.1,3.6-3.9,1.7-5.9,1.5-39.4-3.7-78.4-10.6-117.3-17.9-5.5-.9-11.1-1-16.8.2-11.4,2.4-22.9,4.2-34.4,5.9-34.9,5.1-69.7,10.1-104.7,14.9-.1-.5,0-1.1-.4-1.4-1.5-1.9-3.1-3.7-4.6-5.5-1.6,1.7-3.8,3.2-4.7,5.3-1.3,3.3-3.5,4.3-6.7,4.8-12.1,1.9-24.2,4.1-36.3,5.9-3.2.5-4.6,1.9-5.3,4.9-1.4,6.1-2.8,12.1-4.2,18.2,0-.1-.1-.2-.2-.3-.3,1.7-.7,3.5-1,5.2-.4,1.7-.8,3.3-1.2,5,0,0,.1,0,.2,0-1,5-1.9,10.1-2.7,15.1-2.6,16.5-5.1,33-7.6,49.5.3.3.7.3,1,0,2.4-13.6,4.8-27.2,7.1-40.8,1.3-7.8,2.6-15.7,3.8-23.5,2.5-.8,2.6-3.2,3.2-5.2,1.8-6.4,2.9-13,4.7-19.4.7-2.7,2-4.2,5-4.7,9.8-1.6,19.5-3.4,29.4-5.1-4.6,3-8.7,6.5-13.2,9.3-1.3.8-2.7,1.9-1.8,3.6,1.2,2,3.8.8,5.5.3,10.2-4.8,18.7-11.4,23.7-21.8.2-.2.3-.4.5-.6,0,.2.2.4.2.6.5,1.4,1,2.8,1.6,4.1,1.5,3.5,1.4,3.9-2.2,4.6-2.3.4-3.4,1.2-3.6,3.7,0,1.5-1.5,4.2-2.1,4.2-5.7-.5-8.5,5.5-13.6,6.1,4.6-.6,8.6-3,13.3-2.8,7.1-2.6,2.9-11,7.8-8.4.7.4,1.5.7,1.8.8.9-1.5,1.7-2.8,2.4-4,1.7.5,3.3,1.1,5,1.6,4.4,3,8.8,6,13.1,9-.9,4.6-3.1,8.4-7,11-3.5-3.9-6.9-7.5-10.2-11.2-3.4,4.7-6.3,8.8-9.3,12.8,2.7-1.5,4.9-3.5,7.3-5.2.4-.3,1.6.5,2.4.7-1.3-2.2-1.5-2.9.7-3.9,1.8,1.5,3.6,3,5,4.7,1.3,1.6,3.7,3.2,1.4,6.2,6.9-4.5,10.5-11,15.5-16.9,5.4-5.2,11-10,14.9-16.6.2-.3.8-.4,1.2-.6,7,9.2-8.5,7.2-4.3,14.6,2.8,4.8,2.5,5.2-3.1,6.7-10.7,1.7-5.5,7.2.4,11.4-7.4,11.1-.8,4.7,3.8.5-1.8-2.4-3.7-5.2-5.7-7.9q2.6-1.1,9.3,1.4c-.2-1.4-1.2-3.8-1.7-4.7,1.4-1.2,3.2-2.1,5-1.3-7.4-7.9-7.6-6.1,2.9-7.3-2.5-1.1-4.7-2-7.9-3.4,2,0,3.4-.1,3.9,0-.4-1.1-1-2.4,1.2-1.9.5.4.8.5,1,.4,0,0,.1.1.2.2,1.6,1,3.5,1.7,4.9,3,4.8,4.6,9.4,9.4,14.1,14.1,2.7,3.9,5.8,7.4,10.8,8.1-3.4-3-6.7-6-10-8.9-1.8-2.1-3.6-4.3-5.6-6.7,1.6-1.5,3.1-3.1,4.8-4.3,1.3-1.6,7.3-2.2,5.1-4.5-4,2.3-7.9,4.6-12,7.1-.4-.4-1.2-1-1.8-1.8-3.7-4.7-7.2-9.5-11.1-14.1-.9-1.1-1.6-1.8-2.3-2.2,3.5-.7,6.1-1.1,7.1-1,23.7-4,47.6-6.4,71.4-9.3,3-.5,6.1-1.3,9.1-1.9-2.4.6-4,1.3-3.4,1.9,2.4,0,5.9-1.4,7.7-.7-2.7.9-5.5,1.8-8.2,2.7,0,.2.2.4.2.6,5.1-.8,10.2-1.6,15.3-2.4,0,.2,0,.3.1.5,0,.5,0,1,.1,1.5-3.2.9-6.3,1.8-9.5,2.8,1.8-.5,4.6-.7,6.7-.8,1,0,2.1.8,3.1,1.3-1.3,1.6-2.8,3.1-4.9,3.5,6.6.2,5.1,1.5.3,3.6,3,1.2,5,.4,1.3,3.4,2.7,1.5,1.1,3.8.8,5.7-.9,5.8-2.1,11.6-3.2,17.5-1.8,9.7-3.5,19.4-5.3,29.1.5,0,1.1.2,1.6.3l4.8-27.2c2.2-12,4.4-23.9,6.6-35.9.1,0,.2,0,.4,0,3-.7,3.6-3.2,4-5.7.5-3.6,2.4-5,5.8-4,5.3,1.5,10.8,1.9,16.2,2.8,17.2,3.1,34.1,7.5,51.4,9.9,19,1.6,37.8,4.6,56.8,6.1.4,0,.7,0,1,0,0,.2.2.5.2.7,0,.4.1.8.4,1.3,0,0,0,0,0,.1,0,0,0,0,0,0,0,0,0,.1.1.2.2,0,.4,0,.6.1,0,.2-.2.3-.2.5,0,1.4.8,2.5,1.4,3.7,3.2,7.8,4.6-1.6,10.1-3.3,2.8-1.4,6.9-.3,7.1,2.1.4,4.3,2.5,7,6.2,8.8,1.5.8,2.5,3.8,4.3,2.2,2.4-2.1,6.5-3.1,6.1-7.4.4,0,.7-.2,1-.4,1.3-1.6,2.8-2.3,5.1-2.1,11.3,1.3,22.5,3.7,33.8,4.8,4.5.4,5.9,3,6.1,6.9.4,6.6,1.4,13.2,2.1,19.7,0,2.2,1,4.5,2.3,4.9,1.2,16,1.2,32.2,3.1,48.1.7-.8.9-1.6.9-2.3-1.2-15.3-.7-31.1-2.6-46.2.4-.4.7-1,1-1.9,1.7-7.9-.7-15.9-.6-23.9,0-3.7,1.1-4.8,4.8-5.1,34-3.4,67.6-7.2,101.6-12.1-27.9,28.4-12-11.6-36.7,14.6-1.1,1.4-2.9,3.1-1.2,4.8,1.5,1.5,3.4,0,5-.9,1.4-.8,1.7-2.9,3.6-3.1,4.2-.3,8.1.2,11.6,2.8,1.9,1.7,8.6,5.2,7.4-.2-.5-1.6-.4-2.7,1.2-3.7,11.2-7.3,21.3-15.8,30.9-25.1.3-.3.4-1,1-.8,2.6.8,3.2,4.8,6.7,4.4-1.4.7-.8,2-.8,3.1,0,.2,0,.4,0,.6-3.1.4-5.3,2.2-6.2,5.8,2-.5,3.8-1,5.7-1.6.2,2.4,2.6,3,4,4.3.8-.2,1.4,0,1.8.7.8.6,1.8.8,2.8.8,1.1,0,2.3-.6,2.7,1.2.5,2.1-1.4,1.2-2.1,1.7-1.8,1-4.7,2.7-4,5-.3,0-.7.2-.8.3.3.4.5,0,.8-.2,0,.2.2.5.3.7,1.5,1.5,2.2,3.8,4.3,4.7,2.7,1.3,5.5,0,4.8-2.4-.8-3.3.6-4.9,2.8-6.7,5-3.6,3-9.5-2.8-10.4-2.4-1-9.1-.5-6.5-4.6,4.6-8.2-6.7-7.5-6.5-12.7,2.3.2,2.9,2,4,3.1,7.2,8.4,18,12.4,24.5,21.7,2.8,3.7,6.3,6.9,11.5,6.9,0,0,0,0,0,0,.1.8.6,1.6.3,2.1-1.8,2.5-3.9,4.7-5.9,7.1h0c-4.7,2.6-3.2,4.6.5.6h0c4.7-4.2,9.6-8.1,14.5-12,.5.6,1,1.1,1.5,1.7-1.9,1.4-3.8,2.7-5.8,4.1,1.1,1.5,3.7-2.1,5.6-3,.3,2,.9,4.3,1,5.7,1.1.7,2.1,1.4,3.2,2.1-.6-4.7-1.3-8-2.4-12.8,9.4,6,18.4,11.7,28,17.9-3.2-8.4-11.2-8.2-17.1-11.7,2.1-1.3,8.5-9,9.1-6.9-5.3,6.9,2.2.4,4.5-1.3-3,2.6,1,2.7,1.3,3.9,3-1.5,4.3,1.4,6.3,2.5,1.5.9,3,1.8,4.4,2.7-3.4-5.1-9.4-7.7-11.5-14.5h8.3c-2.6-.9-6.2-.7-7.5-2.3-2.5-3-5.6-3.1-8.5-3.2-3.6,0-4.5-2.2-4.9-4.7-.3-2.1-.8-3.3-2.9-3.4,0-.2,0-.5-.2-.7-2.6-2.1-3.5-4.2-.4-6.6,8.6,9.6,18.6,16.6,30.8,20.5,2.2.7,5.5,2.2,6.5-.9.8-2.6-2.4-3.6-4.5-4.5-6.7-2.7-12.4-6.9-19.3-11.2,7.2-1.2,13.6-2.3,20-2.8,2.9-.2,3.6,1.5,4,3.9,1.9,9.6,2.8,19.5,5.8,28.8.6,1.2,1.2,2.7,2.8,2.3,4.3-1-1.2-20.4-1.2-24.5-1.5-11.1-4.5-10.5,8.7-8.9,1.3,0,4.1.6,7.3,1.2-1.4,1.8-2.7,3.3-4.5,5.5,6.1-2.8,4.8-2.6,2.7,2.4,0,0,0,.1,0,.2-.5.2-.9,1.2-1.5,1.7.7-.4,1.5-.8,2.2-1.2h0s0,0,0,0c2.3,4.6-2.9,5.8-4.6,9.6,2.2-1.1,3.5-1.8,4.9-2.5.5,3.2.9,6.2,1.4,9.1.9-2.6.9-5,.9-7.5,0-2.8,1.7-.8,2.7-.8,0,0,.2,0,.2,0,.2.6,1.6,1,2.1,1.6,1.2-1-1.2-1.6-1.8-2.3-1.2-1.9-3.8-3.2-2.9-6.1,1.3.5,2.4.9,3.4,1.3l.8-.8c-5.4-1.5-3.2-6.7-5.1-10.2,5.1.9,11.1,1.6,14.2.6,2.5,2.9,6.4,2,9.6,2.5,14.8,2.1,29.7,2.7,44.5,4,2.2.2,4.6.3,6-1.9,0,.2,0,.3.2.5,1.3.8,2.5,1.7,3.8,2.5,1.6,2.8,4.2,3.1,6.9,3.2,1.8.5,3.7.7,5.7.5,5.7.7,11.4,1.3,17.1,1.8,2.4,3.8,6.7,2.7,10.2,3.2,14.8,2.1,29.7,2.7,44.5,4,2,.2,4.1.3,5.6-1.3,5.9,5.9,18.2-.9,19.8,9.6,4,18.7,7.9,37.3,12.9,55.7.7,2.5.8,5.3,2.7,7.2-.9,1.6-.2,3.4.2,5,1.1,5.2,2.7,10.3,4,15.5.5,2,1,3.9-.3,5.8-.1.2-.2.4-.3.6-11.6-5.9-23.7-10.9-30.9-22.9-2.4-4-4.9-3.7-7.9-.1-.6.8-1.2,1.6-1.6,2.5-2.4,5.2-6.6,8.7-11.3,11.6-4.8,2.9-9.5,6-14.2,9-5-4.6-8.7-10.3-13.4-15.1-6.1-6.9-8.8,7.8-13.1,10.3-8.3,6.1-16.7,12-25.1,18-.8.8-3,1.7-1.5,2.8,8.4-5,17.9-8.4,24.4-16.4,2.5-3.7,4.4-3.9,8.6-2.9-1.3,3.9,2.6-.8,2.3,1.8-1.2.9-2.7,2.2-3.8,3.4,1.7.8,4.1-1.9,6-2.5.7,1.7-3.4,3.3-4.5,4.8h0c-.4.4-1.9.7-1.2,1.2.5-.3.9-.7,1.4-1,0,0-.2-.2-.2-.2.5.5,1.7-.4,2.5-.4,3.5-1.1,2.9-.6,1.4,2.2,0,0,0,.1,0,.2-.7,0-1.5,1.2-2.2,1.6.6,1.2,1.9-.7,2.9-1,1.3-.2,3.9-1.5,4.9-1.6-.9,1.5-1.3,2.2-2.1,3.4,5.8-3.1,5.3-2.3,1.5,2.4,2.1-1,3.2-1.5,4.3-2.1,1,3.4,3.9.8,5.8,1.6,9,3.2,18.9,2,28.2,2.8.3,0,.7-.5,1.9-1.4-9.7-2.6-23.5-1.8-28.5-11.4,7.1-2.5,13.7-5.8,19.7-10.4,1.8,2.3,2.1-.8,3.2-.9h3.9c-.4,1-.5,1.6-.4,2,0,0,0,0-.1,0-1.4,1.1-7.7,2-6.3,3.9,3.3-.8,6.6-1.7,9.9-2.5,2.1-1.3,3.8-.8,4.2,1.6.7,4.1.7,4.8,4,5.8,2.7.8,5.7.9,8.4,1.5,3.5.8,7,1.9,10.5,2.9,1.2-2.4-2.2-1.5-3.7-2-1.1-.2-2.8-.1-3.2-.8-2-3.3-5.2-3.4-8.3-3.3-8.7-.7,1.5-8.8-13.8-8.9,0,0,0,0,0,0,1.5-3.5,2.9-7.1,4.6-11.1,1.3,1.4,2.6,2.3,3.2,3.6,2,4.3,5.2,7.1,9.4,9.1,1.3.6,2.5,1.6,3.6,2.6,4.7,4.4,10.4,6.8,16.6,8.1,0,0,0,0,0,0,3,2.8,4.2,6.7,6.7,9.8,0,.2-.2.4-.3.6-2.2,1.8-1.1,4-.7,6,1.1,5.2,2.7,10.3,4,15.5-.3,2.8-.4,4.4,0,5.2-.1.2-.2.4-.4.6-.4.6-.6,1.3-.7,2,2.5,2.4,3.8,5.6,5.7,8.4.1.5.2.9.3,1.4,1.1,5.2,2.7,10.3,4,15.5.5,2,1,3.9-.3,5.8-.4.6-.6,1.3-.7,2,3.2,3,4.4,7.3,7.3,10.5,1,4,2,8,2.7,12,1.3,7,2.8,14,3.4,21.1.2,2.8-.5,4.5-3.9,3.8-12.8-1.4-25.8-2-38.7-2.9-1.6-.1-3.2.1-4.2,1.7,0,0,0,0,0,0-1.2-1.7-3.1-1.8-4.9-2-8.5-1.3-17.2-1.5-25.8-2.3-28.5-3-57.2-5-85.6-9.1-12.7-1.7-25.3-3.9-38-4.5-7.2-.4-8-.9-9.8-8-6.8-26.4-12.6-53-19-79.5-1.1-4.5-.6-9.7-4.4-13.4-.3,0-.5-.1-.7-.1-3.3-17.8-6.6-35.5-10-54.1-.4,1.3-.7,1.7-.6,2.1,2.8,16.5,5.6,33,8.3,49.5.2,1.5-.4,3-.6,4.6-1.2-.3-2.8-2.3-3.2-.3.8.1,2.1,1.2,2.8,1.2,0,.2-.2.3-.2.5,0,.5,0,1,0,1.5,7.5,30,14.6,60,21.4,90.1,1.3,5.7.9,6.2-4.8,7-42.2,6-84.3,13.2-126.2,21.3-2.7.5-15.2,2-15.8,5.9-2.5-2.4-5.3-1.1-7.9-.5-12.2,2.6-24.1,6.3-36.4,8.5-22.7,4-46,4.4-68.4,9.9-1.8.5-4.4,1.3-4.3-2-2.5-12.7-2.8-25.6-5-38.4-.5-3.3,0-7.1-2.9-9.7,0,0-.1,0-.2,0-.3-6-.6-12-.9-18,0-.4-.4-2.8-.9-3.8,0,0,0,0,0,0-.4-14.3-.8-28.6-1.1-42.9-.3-10-.7-20-1-30-.7,2.4-1.5,26.6.1,30-.2.1-.3.4,0,1,.4,13.9.9,27.9,1.3,41.8,0,0,0,0,0,0,.6,7.5,0,15.1,1.2,22.5-.5.5-.7,1.2-.9,1.9-1.9,8.8,2.5,17.9-1.5,26.6-.2.4.6,1,.5,1.3-.5,5.5,6.2,7.4,3,13.9,0,0,0,0,0,0-3.9-3-9.5-2.9-14.2-2.4,4.7.9,9.5,1.9,14.2,2.8,0,1.2,1.4,2,1.7,3.1-6.1-.9-12.1-1.8-18.2-2.6,5.6,2.6,12.1,3.1,18.2,4.5-.6,2.3-4.3,1.6-6.2,1.2-16.9-2.5-113.6-21.4-132.9-24.5-2.8-1.7-5.9-2.4-9.2-2.3-6.5.2-12.9-.7-19.4-1.3-31.6-2.6-62.8-8.9-93.5-16.9-5.8-1.5-7-3.7-4.9-9.5.7-1.9,1.1-3.8,1.2-5.8.5-5.6,1.4-11.1,2.4-16.6-.6,4.5-1.2,8.9-1.8,13.4,2.8,1.1,3.1-13.6,2.5-17.4.3-1.8.7-3.7,1-5.5.8-4.5,2.5-9,.9-13.7-.3-.7-.6-1.1-1-1.4,1.5-10.1,3-20.2,4.5-30.2-.5,0-1-.1-1.5-.2-1.4,10-2.9,20.1-4.3,30.1-1.6.5-3.1,3.9-3.1,5.7-1.4,14.2-5.1,27.9-7.1,42-.7,3.8-2,6.1-6.5,6.6-17.8,2.1-35.6,3.1-53.4,4.7-4,.3-7.9.5-11.6,2.3-.3.3-.5.5-.6.7-.9-1.2-2.2-1.7-3.6-1.6-7.4.6-14.9.8-22.3,1.9-.8.1-1.6.4-2.2.9-5.3-.8-14,.9-16.9.7-17.5.8-34.6,4-51.9,6.7-11.1,1.7-22.2,4.6-33.6,4.1-4.4-.2-4.8-.7-2.7-4.6,1.1-1.9,3.9-8.4,1.8-10.3,2.8-9.2,5.6-18.4,8.4-27.6-.3,0-.7,0-1,0-2.9,9-5.8,18.1-8.7,27.1-2.4,5-4.8,9.9-7.2,14.9-.6,7.3.8,4.3,6.4,4.2,4.8-.2,9.7.1,14.4-.5,31.7-4.4,63.3-9.5,95.2-11.6,0,0,0,0,0,0,.7,1.1,1.1,1.4,1.8.1,2.4,1.9,3.6-1.8,6-1.1,2.1.6,4.5.5,6.6,0,1.9-.9,9.6.3,10.2-1.5.4.2.8.4,1.3.5h0s0,0,0,0c.3.6,1,1.4,1.1,2,0-.7.2-1.5,0-1.8,0,0,0-.1,0-.2.9-.9,2-.6,3-.3,11.2-.6,23.6-2.6,34.2-1.8,1.7,2.9,3.1,4.7,3.6,5.1,0,0-.1,0-.2.1,1.1,1.9.9,1.3.5-.5,0,0,0,.1-.1.2-.2-.6-1.1-2.2-3.1-4.8,0,0,0,0,0,0,0,0,0,0,0,0,4.5-2.6,10.3-.5,15.1-2,2.9-.7,4.7,0,6.7,1.7.1.1.6-.1.9-.2-.4-.7-.9-1.3-1.9-2.9,2.1.6,3.3,1,4.5,1.3.1.2.3.3.4.4,1.6,1.7,4.3,6.7,5.5,4.3-1.8-1.3-3.2-3.6-5.1-4.4,0,0,.1,0,.2-.1,3.4-3.8,5.2.6,6.8,2-.3-1-.6-2.1-1-3.6,5.7.9,10.6,3.5,15.9,4.4,2.1.3,5.2.6,5.9,1.9,1.7,3.3,3.2-.5,4.8.4,4,1.7,8.5,2.4,12.6,3.8,2.3.6,6,.6,8.8,1.2,10,1.6,19.9,3.6,29.9,4.8,19.4,2.4,38.9,4.3,58.4,6.4-1-.2,36.7,7.4,35.7,7.3,0,0,.2-.1.2-.2,30.7,6.1,68.1,13.5,87.4,17.3,7.9,1.5,15.7,1.7,23.7-.4,8-2.1,16.3-3,24.5-4.3,28.8-4.9,61.1-7,87.3-17.8,0,.3,0,.5,0,.8,13.6-1.6,26.9-5.5,40.5-7.4,5.9-.9,12.7-3.7,18.4-1.5.1-.5.2-1.3.4-1.4,5.9-.6,11.5-3.7,17.6-1.6.5.2,1.5,0,1.5,0,.2-3.7,2.9-1.7,4.5-2,.9-.2,2.1.6,2.7.3,3.8-2.4,8.6-2.6,12.3-1.3.6-.7,1.2-1.9,1.7-1.9,2.5.1,4.9.6,7.4.9h0c3.6,4.2,5.3,2.1.2-.2,0,0-.2.2-.2.2.4-.5,0-1.4,0-2.1,2.3,0,4.7-.1,7-.2,1.8,0,4.8-.7,7-1,2.3-2.1,5.9-2.2,8.9-.9.6.4,1.2.7,1.8,1.1-.6-.4-1.1-1-1.7-1.3h-.1c0,0,.1,0,.1,0,4-4.4,9.7.8,13.9,2.1-3.8-3-8.3-6.4,0-4,2.9,1.7,6.3,3.3,8.9,5.1-1.4-1.2-2.8-2.4-4.1-3.7-1.5-1.5-2.1-3.3-3.4-2.8,0-.3.2-.5.6-.5,1.3.5,2.6,1,4,1.3,2.6.6,1.9-2.6,4.9-1.5,2.3-2.2,5.2-.6,6.8,1.2,3.4-4.3,5.5,0,8.2,1.4-.3-.9-.5-1.6-.9-2.6,48.4,7.1,96.7,11.6,145.5,14.2.7.3,1.4.4,1.8.2,16,1.8,32.1,3,48.2,4.6,6.3.7,3.6-6.9,3.2-10.5Z" style="fill:#c8c0b9;"/><path d="M1439.5,1167.3c-.2-.1-.3-.2-.5-.3.1.1.3.2.5.3Z" style="fill:#c8c0b9;"/><path d="M1439.5,1167.3c1.2.8,2.5,2,3.7,2.9,1.6-1.8-2-2.1-3.7-2.9Z" style="fill:#c8c0b9;"/><path d="M1490.8,1163.1c-1.4,1.2,1.7,2.4,2.4,3.6,1.8-1.4-1.5-2.4-2.4-3.6Z" style="fill:#c8c0b9;"/><path d="M886.1,1169.3c1.7-.7-.8-2.8-1.1-4.1-2,.8.7,2.7,1.1,4.1Z" style="fill:#c8c0b9;"/><path d="M929.3,1167.6c1.8-.8-1-2.8-1.5-4.1-1.8.8,1.1,2.8,1.5,4.1Z" style="fill:#c8c0b9;"/><path d="M1478.8,1166.1c-1.1,1,1.5,1.9,2.1,2.9,1.8-1.2-1.3-1.9-2.1-2.9Z" style="fill:#c8c0b9;"/><path d="M896.2,1165.3c.6.8,1.2,2.2,1.8,3.1,2.1-1-.7-2.1-1.8-3.1Z" style="fill:#c8c0b9;"/><path d="M922.3,1163.4c.7.9,1.3,2.5,1.9,3.5,2.1-1-.7-2.3-1.9-3.5Z" style="fill:#c8c0b9;"/><path d="M1471.3,1161.3c.9.7,1.8,2,2.6,2.8,1.8-1.5-1.3-2-2.6-2.8Z" style="fill:#c8c0b9;"/><path d="M878.5,1165.6c-.8.6,1.1,1.6,1.5,2.3,2-1.3-.2-1.5-1.5-2.3Z" style="fill:#c8c0b9;"/><path d="M1430.2,1167.2c.6.4,1.2,1.3,1.8,1.8,1.3-1.2-.7-1.3-1.8-1.8Z" style="fill:#c8c0b9;"/><path d="M905.9,1164.9c.6.6,1.4,2.1,1.8,2.2,0,0,0,.2.2.3,3.2,4.7,2.6,1.1,0-1.4-.7-.5-1.3-2.2-2.1-1.1Z" style="fill:#c8c0b9;"/><path d="M1447.7,1166.2c.4.3.9.6,1.3.8-.4-.3-.8-.5-1.3-.8Z" style="fill:#c8c0b9;"/><path d="M869.2,1167.5c.2.4.7.5,1.1.8,0-.3.1-.6.2-1-.3-.3-.7-.6-1-.9-.1.4-.4.9-.3,1.1Z" style="fill:#c8c0b9;"/><path d="M1449.2,1167.2c.6.4,1.3,1.4,1.9,1.9,1.3-1.4-.8-1.4-1.9-1.9Z" style="fill:#c8c0b9;"/><path d="M1460,1167c.7.4,1.5,1.4,2.3,2,1.4-1.5-1.2-1.4-2.3-2Z" style="fill:#c8c0b9;"/><path d="M1479.8,1163.8c1-1-.6-1.1-1.6-1.5.5.4,1.1,1.1,1.6,1.5Z" style="fill:#c8c0b9;"/><path d="M1477.8,1162.2c.1,0,.3.1.5.2-.2-.1-.3-.2-.5-.2Z" style="fill:#c8c0b9;"/><path d="M1436.9,1166.1c.7.2,1.5.9,2.1.9-.7-.2-1.5-.9-2.1-.9Z" style="fill:#c8c0b9;"/><path d="M851,1167.1s0,0,.1.1c0,0,0-.1-.1-.1Z" style="fill:#c8c0b9;"/><path d="M851.1,1167.2c.1.3.2.9.3,1.1.8-.5.2-.7-.3-1.1Z" style="fill:#c8c0b9;"/><path d="M847.5,1169.5c.5-.3.2-.7,0-1.1-.5.3-.2.7,0,1.1Z" style="fill:#c8c0b9;"/><path d="M1469.1,1168.1c1,.9,1.3.2,0,0h0Z" style="fill:#c8c0b9;"/><path d="M1469,1168s0,0,0,0c0,0,0,0,.1,0,0,0,0,0,0,0Z" style="fill:#c8c0b9;"/><path d="M951.3,1169.7c.2.4.4.7.5,0-.2-.4-.4-.4-.5,0Z" style="fill:#c8c0b9;"/><path d="M960.2,1170.2c.1.2.3.6.4.7.2-.4,0-.5-.4-.7Z" style="fill:#c8c0b9;"/><path d="M959.9,1170.1c0,0,.2.1.3.2,0-.1-.2-.2-.3-.2Z" style="fill:#c8c0b9;"/><path d="M1414.1,1170.2c1,.9,1.3.2,0,0h0Z" style="fill:#c8c0b9;"/><path d="M1414,1170s0,0,0,0c0,0,.1,0,.2,0,0,0,0,0-.1-.1Z" style="fill:#c8c0b9;"/><path d="M1374.9,1176.1c0,0,.2,0,.3.1-.1-.1-.2-.2-.3-.1Z" style="fill:#c8c0b9;"/><path d="M1375.7,1176.6c.7-.1,0-.3-.5-.4.2.2.3.4.5.4Z" style="fill:#c8c0b9;"/><path d="M895.9,1164.8c-.3-1.1-.9-.8,0,0h0Z" style="fill:#c8c0b9;"/><path d="M895.9,1164.8c0,0,0,.1,0,.2h0s0,0,0,0c0,0,0,0-.1-.1Z" style="fill:#c8c0b9;"/><path d="M819.6,925.1c3.6-.7,14.6,1.6,16.7-4.7.4-1.7-.7-4.7-2.1-5.5-2.8-1.6-5.1-4.2-7.6-5.4-3.7-1.8-8.3-2.5-12.6-3.1-3.3-.4-5.7,2.3-7.6,4.9-.9,1.3-1.5,2.5-3.7,2.5-4.3,0-6.4,4.2-3.6,7.5,5.7,5.7,11.8,3.4,20.5,3.7Z" style="fill:#c8c0b9;"/><path d="M1085.3,932.2c0-2-4.3-.5-5.9-.9-.4,2.7,4.1.6,5.9.9Z" style="fill:#c8c0b9;"/><path d="M1617.6,1071.6c-.3.7-4,3.8-1.4,3.1,2.1-1.3,5.7-6.1,7.1-1.6.1.3-.1.8-.2,1.2,4.6-1.1,6,4.1,9.6,4.9.1-.4.3-.8.4-1.2-3.5-3.7-7-7.4-10.6-11-.6-.6-2.3-1.1-2.8-.7-4.3,3.4-9.2,6.3-11.4,12.1,1.9-1,8.3-8.3,9.2-6.8Z" style="fill:#c8c0b9;"/><path d="M752.3,1052c2.4-.3,0-4.2.2-6-2.9.9-.4,3.8-.2,6Z" style="fill:#c8c0b9;"/><path d="M726,1134.8c2.4-13.6,4.8-27.2,7.1-40.8,1.8-10.7,3.5-21.3,5.2-32-.3-.7-.7-1.4-1-2.1.6-2.9,1.3-5.8,1.9-8.7-3.5.3-2.4,4.1-3.1,6.7.6.6.1,1.7,1,2.1-1.5,8.4-3.3,16.7-4.6,25.1-2.6,16.5-5.1,33-7.6,49.5.3.3.7.3,1,0Z" style="fill:#c8c0b9;"/><path d="M1075.8,1117.3c.3.1.7,0,1.2,0q-2.7-3.5-2.3-6s.2-.2.3-.2c-.7.4.9,1.3,1.1,1.7.9-.3-.8-1.2-1.1-1.7,0,0,0,0,0,0-2-2.9-2.1-2.8-4,0,2.8,2-3,4.7.8,7.1,1,.7.1,4.5.1,6.8,2.6.3,2-1.2,2-3.4,1.3.6,2.2.9,3.6,1.5-.9-2.2-6-7.7-1.7-5.9Z" style="fill:#c8c0b9;"/><path d="M1083.9,1124c6,1.8,3.6.1,4.7-4.5.4-1.5.6-1.5-1.1-3.6-1.1,1.2-2.1,2.3-2.6,2.9.7,1,1.7,1.9,1.5,2.1-.7,1.1-1.6,2.1-2.5,3.1Z" style="fill:#c8c0b9;"/><path d="M1621.6,974.4c.2-.2.3-.4.5-.6-1.4-2.3-2.7-4.6-4.3-7.3-1.5,2.2-2.6,3.8-3.7,5.4,0,.7,0,1.3,0,2-.4,2-.6,4.3-1.1,6.1h0c1.2,2.5,2-.8,3-2,2.7,3.6-1.9,4.9-2.5,7.9,1.2-.5,2.1-.9,3.3-1.5.2,3.5.3,6.8.5,10.1.5,0,.9,0,1.4,0,0-3.2,0-6.3,0-10.1,1.9.8,3.7,3.1,4.6,2.1-1.5-2.2-3-4.3-5.1-7.3,2.2.9,3.2,1.3,4.3,1.7-1.5-2.8-2.8-5.2-4.1-7.6,1.2-1,2.2.6,3.2,1.1Z" style="fill:#c8c0b9;"/><path d="M857,1087c-.1,0-.2,0-.4,0,.1,0,.2,0,.3.1,0,0,0,0,0,0Z" style="fill:#c8c0b9;"/><path d="M1581,1086.8c-1.4-1.6-4-2.7-6.1-2.9-6.3-.6-12.6-.9-18.8-.5-2.5.1-5.3,2-7.4,3.7-2.4,1.9-2.5,5,0,6.9,2.2,1.7,2.3,4,3.2,6.1.5,1.2-.5,4.4,1.3,4.1-.3-1.4.1-5.7-.6-5.3,0-.2,0-.4.2-.5,2.2-2.4,3.4-.1,4.9,1,7.5,7.4,12.1,8.9,22.5,8.7,10.1-.3,20.7-.1,30.4-3.3,6.2-1.7,1.6-8.6-2.2-10.2-3.9-1.1-8-1.9-12.1-2.3-5.6-.6-11.2-.3-15.4-5.3Z" style="fill:#c8c0b9;"/><path d="M1026.9,1063.7c-10.1-9.5-7.8-7.9-17.9.3-2.2,1.8-4.2,3.8-4.7,6.2,3.5-2.4,7.2-4.8,10.8-7.3-5.5,6.6-5.4,5.3,2.9,5-1,1.9-1.9,3.7-3.3,6.5,1.8-1.5,2.6-2.6,3.6-2.8,1.8-.5,2.3-1,1.7-2.8-.2-.6-.1-1.3-.2-2-.4-2.2-.8-4.4-1.4-7.9,4.9,3.7,8.8,7.2,13.2,9.9,4.3,2.8,9.1,4.9,14.5,7.8-2.3-2.8-4-4.8-5.6-6.7,11.9-8.4,23.5-17.2,34.3-26.2,0,0,0,0,0,0,0,0,0,0,0,.1,0,0,0,0,0,0,1,.6,3.5.6,4.8,1-.5.1-1,.3-1.5.4.6.1,1.2.5,1.5.3.2.2.6.4,1,.4.1,0,.1.3.2.4-2.7.9-5.5,1.8-8.2,2.8.5,1.6,4.5-.3,6.5-.2-1.4.9-2.4,1.6-3.5,2.4,3-.2,5.6-.4,8.2-.6-1,.4-1.9.7-2.9,1.1-2,1-7.3,2.1-1.5,2.3-2.3,1.1-4,2-5.8,2.8.8,1.6,6.2-1.2,8.1-1.2-.8,2.7,1,1.1,1.8,1.1-1.2,1.2-2.8,2.9-3.8,3.8-10.5,8.8,3.9.6,8-.9,0,0,0,0,0,0h0c2.5-.9,4.1.8,6,1.9-.9.6-2.1,1.2-3.1,1.9h0c-1.5.7-1.5.9,0,1.1-1.7,1.5-3.4,3.2-5.1,4.3,3,2.1,6.1,4.1,9.1,6.2,1.4-1.5-3.4-5-4.4-6.9,3.3-1.9,7.9-3.9,8.3-7.8-2-3.5-8.5-3.6-12.2-4.7-1.8-.5-2.4-1.5-1.4-3.3,1-1.8,3-4,2.6-5.3-.6-1.6-3.3-2.3-5.1-3.5-3.7-1.9-4.9-5.2-1.1-7.8.5-.3,2.1.8,2.7,1.6,4.5,5.5,9.7,9.8,15.7,13.6,8.8,6.3,11.1,14.7,22.6,18.9-11.5-12.6-24.8-23.3-37.5-34.7-4.4-4.4-8.8.8-11.9,3.9-7.8,9.8-17.7,17.5-27.5,25.2-6.8,5.1-11.7,6.1-19-.9Z" style="fill:#c8c0b9;"/><path d="M1045.3,1147.9c.5-3.2,1.3-6.3,1.6-9.5.2-2,.6-3.1,2.8-3.8,3.2-1,3.2-2.8.5-4.9-1.9-1.5-3.8-3-6.2-4.9v4.3c-.9.5-2.3.8-2.7,1.6-1.9,3.5-5,2.9-7.8,2.3-5.9-1.9-2.7-10.3-2.6-14.8-7.2,1.6-8,1.2-8.1-4.3,6.8,4.9.7-2.1-1.2-5.5,2,.7,2.9,1.1,4.7,1.8-2-2.3-3.3-3.7-4.9-5.5-1,2-2.6,3.5-2.5,5,0,2.3.7,3.2.4,3.7-2.9,1.8-1.6,3.1.3.3,3.4,3.9-2.3,4.9-2.5,7.9,6.4-1.3.8,4.9,4.4,6.2.5-2.4.1-12,2.5-5.3.1,3.2,0,6.5.2,9.7,0,3.7,8.2.4,6.4,6.5-.9,5.1.5,11.4,2.1,1.5,1.1,2.2,1.6,3.3,2.5,5,.8-3.9,3.2-3.4,5.9-2.9v4.8c1.3-2.6,2.1-4,2.8-5.5,1.9,1.1-2,6.6,1.3,6.4Z" style="fill:#c8c0b9;"/><path d="M1281.4,1041c-3.2,7.8-6.2,15.1-9.3,22.6q7.9.9,10-4.4c1.4.6,4,1,4.1,1.8.6,3.8,3.2,3.1,5.5,3.1,2.5,0,5-.3,7.5,0,5.2.3,6.3,1.6,7.3,6.6,4.4-1.9-.3-4-.4-6.7h34.6c-.9-4.4-1.7-8.1-2.4-11.8-5.1-13-17.1-35-15-28.2-1.3-.3-3.6.3-4.9,0-.1,0-.3-.1-.4-.2-.5-.2-1-.1-1.5.2-4.9.1-9.8.2-14.7.3-1.5-.6-6,.6-7.2,0-4.2-.6-6.9,1.1-8.5,4.8-2.4,4.2-4.6,9.1-7.1,12.9.6-.2,1.2-.4,2.4-.9Z" style="fill:#c8c0b9;"/><path d="M1336.3,1134.3c-3.9,3.2-7.7,6.5-12,10.3,2.8,1,4.7-3.5,6.6,0,3.2,3.9,8.1,5,12.1,2.7q-8.1-.8-11.9-4.5c1-1.3,1.9-2.6,2.9-3.9,2.5,1.7,4.7,4.4,8.8,3.2-2.4-1.7-6.3-1.2-5.9-5.2,1.2.3,2.5.4,3.6.9,5.5,2.7,10.9,5.6,16.7,8.5-4.7,3.4-9.5,6.8-14.3,10.3,2.9-.2,5.3-3,8-1.7.1-3.2,3.1-3.5,5-4.8.8,7.2,4.7,9.7,10.8,6.9-8.1-.4-8.5-.8-8.9-8.1.7-1.3,1.4-2.6,2.1-4,1.3,2.3,3.3,4.1,5,6.1,3.2,2.1,6,.2,8.9-1-2.4.4-5.7-.7-7.8.3,0,0,0-.2,0-.3-3.3-2.7-3.6-5.1-1.1-7.6,1.7-1.7,2.1.3,3.1.7,2.1-3.6-.2-6.5,5.2-3.3,2,.7,12.4,10,12.7,7.5-3.5-2.9-7.2-5.6-10.6-8.6-5.2-4.4-5.1-4.5-9.9,0-6.1,5.7-7.6,6-15.1,2-3.6-2.1-7-4.5-10.7-6.4-.9-.4-2.5-.7-3.1-.2Z" style="fill:#c8c0b9;"/><path d="M779.2,1018c0,1.6,1.7,0,3.4-.7-3.4,6.8-6.2,12.8-9.3,18.7-1.2,2.2-1.3,3.5,1.2,4.6,2.8,1.3,5.5,2.9,8.3,4.3-2.1,2.9-3.7,5.9-3.5,6.6,7.7-12.1,8.2,4,30.7-1.6.6-1.1,1.1-3.3,1.7-3.3,1.2-.5,6.8,1.1,8.3.5,0,0,0,.2,0,.2,1.9,3,5.3,4.8,7.1,3.2,2.4-2.2-.7-4-1.3-6,0-.2-.5-.4-.8-.6.4,1.1.3,3.2.6,4.5-2.9,1.7-4.7-2.6-5.3-2.4,0,0,0-.1-.1-.2-3.8-8.1-7.2-16.3-7.3-25.6.5.8.9,1.7,1.4,2.5.5.6,1.2,2.9,1.9,3,0,0,0,.1-.1.2.3.2.8,1.2,1.1.9-.3.5.7,1.7.8,2.4,0,0,0,0,0,0,.2,1.2,2,4.3,3.1,6.6-.9-2.2-1.8-4.7-2.7-6.9-.4-.7-.9-1.3-1.3-2h0c-.2-.7-.2-1.6-.4-1.6,0,0,0-.1,0-.2,1.4.1,3.4,1.9,4.5.9-1.7-1.7-3.4-3.3-5.2-5-2-2.4-4-4.7-6-7.1-6.2-.6-12.7-.6-18.7-2.1-6.2-1.6-9.5,1.9-12.3,6.3Z" style="fill:#c8c0b9;"/><path d="M1040.9,974.4c-2.2,2.7-4.6,4.4-8,2.5-4.7-2.5-9.3-5.1-14.1-7.3-1.6-.8-4.2-1.5-5.3-.7-3.9,2.8-7.4,6.2-11,9.4,1.1,1.7,3.3-1.1,5.1-1.5,1.5,2.3,3.2,4.5,6.9,4.3-6.4-3.8-6.6-4.7-1.9-8.3,1.8,2.5,4.2,4,8.2,2.8-3.3-.6-6-.9-6.7-5.2,7.2,3.4,13.7,6.5,20.4,9.7-1.6,1.5-3.5,3.3-5.5,5,1.6,0,3.2,0,4.7,0,.2-.1.4-.2.6-.4,0,.8,1.8.7,5.1,1.4,0,0,0,0,0,0,1.2.4,2.4.7,3.4,1,1.8-.5,3.7-1,5.8-1.6q-9.3-.8-9.4-6.3c1-.4,2-.8,3.1-1.2,1.3,2.8,3.7,2.1,6.2,2-1.8-.6-3.6-2.8-5.1-2.6,0,0,0-.2,0-.3,1.5-4.3,1.5-4.3,4.9-1.7,13.3,10.3,16.7,10.3,1.6-1.2-4.5-3.8-4.5-3.9-8.8.3Z" style="fill:#c8c0b9;"/><path d="M1099,976.9s0,0,0,0c0,0,0,0,0,0,0,0,0,0,0,0h0s0,0,0,0c2.9,2.2,5.3,4.8,6.9,8.8-1.2-4.6,1.1-5.6,4.9-6,5.7-.6,2.9-6.1,2.3-9.9-.6-1.4-1.3-3.2-2.4-3.9-1.5-.9-2.5-1.6-2.8-3.5-.2-1-1.8-2.1-3-2.4-1.5-.3-6.9,5.6-6.8,7.1.2,2.4.7,4.8-.9,7-.2.4,1.1,1.8,1.8,2.7Z" style="fill:#c8c0b9;"/><path d="M1207.4,968.4c-1.4-.5-.4-4.9-3.4-4.4-1.9.2-3.2,3.1-5.1,3.9-2.6,2.2-4.7,12.4-.9,14.1,7.2,1.5,5.7,11.6,6.7,2.3,4.9-.1,9.8-1.2,7.6-7.3-.9-3.4-.5-7-4.9-8.6Z" style="fill:#c8c0b9;"/><path d="M1162.9,1033.9c.6.9,1.1,2.6,1.8,2.7,6,1.1,5.6,5.5,5.4,9.9-.2,1.4.3,2.5,1.4,3.4.5-.5,1.3-1.1,1.3-1.6.1-3.7.2-7.3,0-11-.1-2.7.4-4.5,3.3-5.1,2.5-.5,4-2.1,4.7-5.3-2.9.2-5.4.3-7.9.4.3-3.5,0-3.4-3.3-3.2.1,3.2,0,5.5,0,9.1-2.9-.6-4.5-.7-6.9.7Z" style="fill:#c8c0b9;"/><path d="M1129.6,990.8c.5-.2,1-1,1-1.6.5-7.3,2.3-12.2-4.2-17.4-.3-.3-1.9,0-2.2.4-2.2,4.2-5.8,8-4.8,13.3.3,1.7-.1,4.5.8,5,3.1,1.7,4,4.3,5.1,7.7-.4-3.8,1.3-5.9,4.3-7.3Z" style="fill:#c8c0b9;"/><path d="M1040.6,1099.5c-2.4,4.2-9.2,13.2,0,4.7v14.3c.5,0,1,0,1.6,0v-13.8c2.3,2.1,3.8,3.4,5.3,4.7-1.1-4.1-5.7-6.1-5.1-11.1,1.7.9,3.6,4.5,5,2.8-2.7-3.5-7.6-7.2-4.5-12,.1-.1.3-.3.4-.4-.6-1.6-1.2-3.2-2.2-5.9-1.1,2.3-1.7,3.5-2.3,4.8,0,.1.2.2.3.4-1.2-.3-2.1,3.2-3.1,4.1.4.2.8.4,1.1.6.8-1.4,1.5-2.9,2.3-4.3,3,4.6-1,8.5-3.4,13.6,1.5-.7,3.2-4,4.8-2.5Z" style="fill:#c8c0b9;"/><path d="M1426.8,1006.6c-3.7.6-4.8-3.5-6.4-6.2-1.1.8-2.2,1.7-3.3,2.6,0,0,0,0,0,0,0,0,0,0,0,0,0,0,0,0,0,0,0,0,0,0,0,.1-.6.8-1.1,1.6-1.7,2.4,4.1,2.1,2.2,6,2.7,9.2,0,.4.3.8.8,2,.4-1.9.6-2.9.6-3.3.7.1,2,.4,2,.4.7-2.8,2-1.8,3.4-.6.4.3,1.2.8,1.3.6,2.2-2.4,1.3,1.7,2.2,1.3,1-3.2,1.9-6.2,2.8-9.3,0,0,0,0,0,0,2.8-2.4,1.5-5.1,0-7.3-1.6-2.2-4-3.1-6.7-1.8,1.3,2.3,2.7,4.3,3.5,6.5.3.8-.5,2.9-1.1,3.1Z" style="fill:#c8c0b9;"/><path d="M1307.8,1100.7c-.6-2-2-3.7-3.2-5.8-1.1,1.2-1.8,1.9-2.4,2.6-1.9-3-2.3,0-2.8.8-2.1,3.2-.4,7.1-5,3-1.7,4.1-3.2,7.9-1.4,11.9.7,1.5,1.1,4.2,4,2.8,0,0,0,0,0,0,0,0,0,0,0,0,0,0,0,0,0,0,.3.2,1.8,1.1,2.1,1.3,0-1.9.2-3.8.3-5.6,3.8,1.2.8-3.5,3.7-3.4-2.3,3.7,5,5.3,1.7,9.8,3.8-2.6,3.6-6,3.3-10,0,0,0,0,0,0,0,0,0,0,0-.1.8.2,1.8,0,1.9.1,0,2.7,0,5.4,0,8,3.2-3.7,1.4-8.4,2.2-13.4-2.9,1.6-3.7.2-4.4-2Z" style="fill:#c8c0b9;"/><path d="M1054.9,946.7c-.5-.4-2.5.2-2.9.8-2,3.7-5.8,6.1-6.3,10.9-1.3,9.4,7.4,2,7.9,10.4.6-7.5,11.3-5.5,5.4-11.7,1.8-5.9.6-7.1-4.2-10.4Z" style="fill:#c8c0b9;"/><path d="M1399.8,1048.5c-.8-.1-2.4.2-2.5.7-1.2,4-6,5.6-6.2,10.5-.1,3.7-.4,5.8,3.1,6,3.7.2,3.8,2.2,3.8,4,2.4-3.1,9.5-6.1,7.5-10.4-.4-1-.4-2.2-.4-3.3,0-1.6-3.8-7.2-5.3-7.4Z" style="fill:#c8c0b9;"/><path d="M1440.4,1109.6c3.3.2-.8-7,5.4-10.2,1.2-.7,2.2-3.9,1.6-5.1-1.4-2.8-.8-6.6-4.1-8.5-1.1-.6-2-1.7-3-2.6-3.5,3.6-3.4,8.7-5,13.2-1.8,6.9,5.9,2.9,4.7,9.9,0,1.1.2,2.2.3,3.2Z" style="fill:#c8c0b9;"/><path d="M1428.6,1079.5c0-2-3.6-7.9-5.4-8.1-.8-.1-2.3.4-2.5,1-1.2,4.1-6.1,5.8-6.2,10.8-1,10.3,8.1,1,7.1,11.6,2.7-6.1,9-7.2,7.1-15.2Z" style="fill:#c8c0b9;"/><path d="M1149.2,996c-1.4,3-.9,5.3,1,6.5,3.6,2.3,4.1,5.2,3.8,8.9,0,.4.4.9.9,1.9.5-1.1.8-1.5.8-2-.7-9.8,4.5-4.8,5.2-9.8-.8-4.6-.5-9.6-3.9-13.5,0,0,0,0,0,0-2.5-6.5-6.6,5.9-7.8,7.9Z" style="fill:#c8c0b9;"/><path d="M1320.3,1150.5c6.9,8.3,16.9,11.5,25.9,16.4-1.1-1.5-2.6-2.5-4-3.5-8.8-6.1-17.7-12.1-26.3-18.4-1.7-3.2-3.2-6.5-5.2-9.5-2.8-4.1-4.6-4.4-7.8-.9-3.3,3.6-6.2,7.7-9.1,11.7-2.9,4-3.4,4.1-7.5,1.7-1.7-1.1-3.5-2-5.1-3.1-9.9-6-15.4-8.8-21.1-19.6-7.1-7.8-10.7,7.2-15.4,10.5-8.6,5-17.3,9.7-26.1,14.6-.9.9-4.1,1-2.6,2.5,39-10,35.4-36.3,41.6-18.9,2.3,4.2,2.3,4.5-2.5,5.1-2.7.4-5.1.5-5.3,4.4-.7,8.8-10.9,1.1-13.7,8.6-1.9.7-9.4-.2-8,2.4,1.2-.5,7-.6,8.3-1.4,1.3.3,4.9-1.7,6-1.5,7.7-1.5,7.9-1.6,11.4-9,.3-.6,1.3-1.4,1.4-1.3,2.5,2,5.2.7,7.9.7-.9-.5-1.7-2.1-2.6-2.9.8-.3,1.7-.6,2.5-1h0c0,.2.4.3.8.4.4.2.8.4,1.1.6.3.4.7.7,1,1.1,1,0,2,0,3,0,6.3,3.8,12.6,7.5,19.3,11.5-2,2.1-4.1,4.3-6.2,6.5,0,0,0,0-.1,0,0,0,0,0,0-.1,0,0-.1.1-.2.2-1,.2-1.9.4-2.8.9,0,0,0,0-.1.1-6.5,1.1-12.9,2.2-19.4,3.3,0,.6.2,1.2.3,1.8,3.5-.4,6.9-1,10.4-1.1,3.6,0,7.3.7,10.9.4,3.4-.3,6.8-2.6,9.9-2.1,3.3.6,5.6-3.9,9-1.3-.6-.9-1.2-1.8-1.8-2.7,1.1-1.2,4,2.4,3.9-1.5.7,0,1.3.1,2,.2,1.8.6,7,6.4,7.7,3.9-1.6-.6-4.8-4.3-6.6-4.4,0-.1,0-.2,0-.4.4-.7,1-2,1.2-2,1.4,0,3.8,2.3,4.6,1.2-1.1-1.4-6.1-3.3-5.1-4.9,1.5.4,3,1.2,4.5,1.4.6-1-4.8-3,.5-3.2-.2-.6-.4-1.1-.5-1.7,2.8-2.3,4.3,2.8,7.2,1.4.4-.2,2.1,1.8,3,2.9Z" style="fill:#c8c0b9;"/><path d="M1075,976c-.2-3.2-2.2-20.4-7.6-13.1-1.8,2.4-3.1,4.8-3.9,7.8-1,3.9-1.3,4.9,2.6,7.3,0,0,0,0,0,0,3.6,2.3.8,6.8,3.3,10.2.3-1.2.6-1.8.6-2.4-1-8.7,4.6-4.6,5.1-9.8Z" style="fill:#c8c0b9;"/><path d="M1403.8,1099.9c3.1-1.9-.1-12.6-1.4-15.5-3.3-6.9-7.2,4.6-8.6,7.4-3.3,8,5.3,6.5,4.5,13.6,0,1,.3,2.1.5,3.2,3.3.2-1.6-7.6,5.1-8.7Z" style="fill:#c8c0b9;"/><path d="M1503,1033s0,0,0,0c2.1-1.4,2.1-2.6-.5-3-7.5.2-4.6,1.4-5.1-6.1.4-3.3-.1-2.8-2.9-2.7.3,1.8.4,2.7-1.4,3.8-.2-.2-.4-.2-.6-.2-.8-.4-1.7-.8-2.5-.8-1,0-2.1.6-3.1,1,.5,1.1.8,2.6,1.7,3.2.5.4,4.1,2,4.4,1.3,3.1,3.8,1.5,4.9,1.5,9.6.4,2.8-1.1,5.8,1.4,7.9,1.1-1.9,2.2-4.2,3.1-6.1-.5-.8-1.8-1.8-1.8-2.8.5-2.2,3.8-3.7,5.7-4.9Z" style="fill:#c8c0b9;"/><path d="M1134.9,1051.8c-4.6,4.2-9.1,8.3-13.5,12.3.3.3.6.7.9,1,2.9-2.4,5.9-4.8,8.8-7.3,1.1.9-.4,1.7-.9,2.8,1.6,0,3.8.6,4.5-.1,2.6-2.6,4.1-.2,5.8.9,2.3,1.5,4.4,3.2,6.6,4.8.2-.4.5-.8.7-1.1-2.2-1.9-4.7-3.7-6.7-5.8-2.1-2.2-4-4.7-6.2-7.5Z" style="fill:#c8c0b9;"/><path d="M1307.9,1119.4c-1.3.8-1.9,1.2-3.4.2-3-2-7.2,3.1-9.8-2.2-.5-.2-.9-.4-1.4-.6-1.4,2.1-1.8,5.5,0,7.2,2.5,1.9,6.4-1.9,8.8,1.8,2.4.2,3.4-3.1,6.5-1,.6.4,2.8-.8,3.5-1.8.5-.8.2-3-.5-3.5-.9-.6-2.9-.7-3.8-.1Z" style="fill:#c8c0b9;"/><path d="M892.8,984.2c1.3,6.2,4.4,7.8,9.9,5q-7.4-.3-8-6.4c1-.5,2-1,3-1.5,1.1,5.3,5,3.2,8.1,3.2-3.1-.8-7.8,0-6.7-4.7.3-1.8,1-3.4,3.2-1.6l1.8-4.1c3.5,1.6,6.6,3.9,9.9,5.9-2.7-2.6-5.3-5.3-8.1-7.7-.5-.5-2.2-.4-2.8,0-6.5,5.5-13,11-19.4,16.5,3.7-.4,6.7-1.6,9.2-4.7Z" style="fill:#c8c0b9;"/><path d="M1117.3,1125.4c0-3.6,0-7.3,0-11.4,9.1,8.4,1.8-1-.7-5.1,1.5-1.3,3.1,1.4,4.5,2.1-1.7-3.4-5.2-5.7-3.7-10.2,5.3,4.9.4-2.5-1.1-5.4-1.3,2.4-2.4,4.3-3.4,6.1,1.4,1.5,1.6-1.2,2.6-2.2,2.1,5.6-2.1,8.4-3.7,12.2,1.2-1,2.5-2.1,4-3.4-1.8,6.3,1,11.7,0,17.3.5,0,1,0,1.6,0Z" style="fill:#c8c0b9;"/><path d="M1424,1105.5c-3.8-5.7-3.5-1.5-6.9,1.5-2.9,1.9.3,4-.2,5.9h0c0,.8,0,1.6.1,2.4,0,.2,0,.5,0,.7,0,0,0,0,0,0,0,.2-.3,1.2-.3,1.7-1.5,2.3-.4,3.9,1.6,4.8,2,.9,3,1.8,2.2,4.1-.2.6.4,1.5,1,3.4.9-3.7.1-7,4.1-7.7.6-.1,1.4-2.2,1.4-3.3,0-4.7.5-9.3-2.9-13.6Z" style="fill:#c8c0b9;"/><path d="M771.4,992.5c1.2,2.5,9.3-8.7,10.3-5.8-.8.9-1.6,1.8-3,3.4,3.3-.8,5.7-1.4,7.9-2,1.6.6,8.7,7.5,9.3,5.5-3.9-4.1-7.9-8.2-11.8-12.4-4.7,3-9.1,6.8-12.6,11.3Z" style="fill:#c8c0b9;"/><path d="M874.1,989.1c-3.6-1.2-6.9,1.2-10.3,3-2.1,1.1-3.6,3.1-2.5,5.3,3.5,5.9,11.7,2.6,17.3,3.6,3.9.3,7.9,1,11.7,1.9,3.2.7,4.3,2.9,2.7,6,0,0,0,0,.1.1-2.1,1-7,5.9-7.7,6.2-7.1,5.2-1.6,11.6,4.9,13.3,7.7,1.9,15.4,3.7,23.2,5.4,4.7,1,9.8,2.3,11,7.2,1.5,7.3,7.6,7.3,13.3,8.8h0c.4,1.3.6,1.1,1.2.1,2.6,1.2,6.7,6.9,8.8,7.4,0,.1,0,.2.2.4,1.9,5.9.6,11-3.2,15.8-3,3.8-4.3,8.4-1.4,12.5,3.2,4.6,6.9,8.7,13.2,9.7,3.3.5,6.9,1.9,9.5,3.9,8.6,6.6,18,9.7,28.8,9.1,4.2-.7,12.9,2.1,7.3,6.9-7.8,5.4-18.4,3.2-26.3,8.2-4.5,2.7-5.3,7.1-1.5,10.7,5.3,5,4.1,8.2-1.6,12.5-8.5,5-19.1,5.7-28.5,8.5-.9.2-1.7.9-2.6,1.3,2.2.7,4.3.8,6.1.3,6.3-1.5,12.6-3,18.8-5,7.9-2.6,19-10,9.9-18.3-3.7-4-3.4-7.1,1.7-9.2,8-3.7,17.8-1.9,25.2-7,3.3-2.6,3.9-6.7.9-9-6.7-4.9-.6-7-6.5-11-4.8-2.3-10.2-2.7-7.4-9.5,2-5.3-3.4-7.7-7.4-9.2-13.4-5.3-31.7-4.3-34.2-22.2-1.7-4.2-5.3-6.7-8.9-9.1,1-6.9,1.9-13.8,2.9-20.7-.4,0-.8-.1-1.2-.2-1,6.6-2,13.2-2.9,19.9-5.3,1.7-10.4-.6-12-5.4-1.4-4.3-4.3-7-8.5-8.3-8.7-2.5-18.2-2.1-26.1-7,6.7-2.7.2-2.1-2.8-1.1,0,0,0,0,0,0-5.5-2.6-6.3-3.5-2.3-8.5,2.1-2.4,4.7-4.5,7.1-6.7h0c1.9-5,.7-8-4.3-8.8-6.5-1-12.9-3.4-19.6-1.4-2.3.8-5.6-.7-6.8-2.5-.5-4.8,7.9-6.3,10.8-8.2Z" style="fill:#c8c0b9;"/><path d="M1300.1,984.5c.4-2.7.8-5.2,1.1-7.8,1.3.7,2.3,1.3,3.9,2.2-1-3.4-5.4-4.4-3.8-8.3,1.1.6,2.1,1.2,3.1,1.8.9-1.9-7.8-9.1-.8-5.8,1.2-1.3-2.7-3.6-3.8-5.3-1.2,2.1-2,3.5-3.1,5.4,1.3-.5,1.9-.7,3.5-1.3-1.7,2.5-2.9,4.3-4.1,6.1,5.4-1.8,1.7,4.3,0,5.9,5.3.5.8,5.2,3.9,7Z" style="fill:#c8c0b9;"/><path d="M811.7,1001.8c.3,2.2.5,4.4.8,6.9,2.9-1.6-1-6.7,4.4-5.7-3.8-4.7-3.8-4.8-.9-5.6-.7-3-1.4-5.9-2-8.6-1.9,1.3-3.4,2.3-5.1,3.5.9,1.1,4.6-.9,2.3,2.1-1,1.4-2.4,1.7-2.4,3.8,6.6-3.6,1.2,2.2-.6,5.3,1.7-.8,2.5-1.2,3.5-1.7Z" style="fill:#c8c0b9;"/><path d="M1142.8,1177.6c.2-2.5.3-5,.5-7.8,1.4.9,2.5,1.6,3.6,2.4-.3-2.5-6.5-6.8-2.1-8,.7-1.4-1.6-3.5-2-5,1-.9,2.3.9,3.4,1.3.9-1.4-2.7-3.8-3.7-5.6-1.3,2-2.2,3.6-2.8,4.5.9.8,1.9,1.6,1.9,1.6-.8,1.2-1.8,2.3-2.7,3.5-2,4.7,8.6-6.7-.9,7.6,1.3-.5,2.3-.8,3.6-1.3.4,1.9-1.1,7.5,1.1,6.9Z" style="fill:#c8c0b9;"/><path d="M1413.2,981.3v11c.3,0,.6,0,.9,0v-10.9c1.9,1.5,3.2,2.5,4.4,3.5.1-.2.3-.3.4-.5-1.7-2.5-3.4-4.9-5.1-7.4,1.3-1.2,2.8,1.2,4.2,1.7-1.6-3.6-6-6.1-2.9-10.8-.5-.7-.7-2.3-1.4-4.2-1.6,2.8-2.6,4.7-3.7,6.5,1,.7,1.8-1.1,2.7-1.6,1.3,3.4-1.8,6.3-.4,9.7.4,1-2,3.1-3.7,5.6,1.8-1.1,2.9-1.7,4.5-2.7Z" style="fill:#c8c0b9;"/><path d="M1454.7,964.7c.7,2-.4,6.9,1.9,6.1.6-2.6-.7-5.8,3.1-4.7-.1-2.3-5.6-3.5-.8-6.2-.2-.5-1.7-2.9-1.5-3.3,2.5-2.6-.5-3.3-1-4.5-1.6,1.1-2.9,2-5.2,3.6h4.2c-1.5,1.9-2.7,3.3-3.9,4.7.7,1.1,2.1-.5,3.1-.7,1.6,1-2.5,4.6-3.6,6.9,1.7-.9,2.6-1.3,3.7-1.8Z" style="fill:#c8c0b9;"/><path d="M1057.9,1084.9c.4.7,1.1,2.1,1.3,2.1,2.3-.9,5.7.6,6.8-2.9h0c3.4,2.5,6.8,5,10.2,7.5-3.4-4.6-7-8.8-10.8-12.9-.4-.4-2-.5-2.5,0-4.1,3.4-8,7-12,10.5,1.2,2.9,5.2-3.2,7-4.1Z" style="fill:#c8c0b9;"/><path d="M1395.6,1000.5c.4,2.2.7,4.2,1,6.3.4,0,.7-.1,1.1-.2.3-2.7,1.6-6,.5-7.9-1.4-2.5,4-3.3.6-5.7-.6-.4,1-4.2-2-6-1.1,2.9-2.2,5.8-3.3,8.8.5,0,1.4,0,2.2-.1-.2,2.4-1.7,3.9-3.3,5.5.5,1.1,2.2-.5,3.2-.7Z" style="fill:#c8c0b9;"/><path d="M911.9,986.8c-3,2.4-5.8,5-9.2,7.9,2.4-.4,3.9,0,5.3-.8q1.9-4,5.9-2c-5.2-10.3,9,5.1,17,3.3-5.6-3-10.8-5.9-16-8.5-.8-.4-2.4-.4-3.1,0Z" style="fill:#c8c0b9;"/><path d="M1099.2,1098.1c-8.5-4.9-2.2-12-7.2-11.2,2.1,4.7.6,8-2.6,10.8,1.5,0,2-.7,3.4-1.3q-.4,3.8-4,7.4c.9,1.1,2.7-.8,3.9-1.1.3,3.1.5,5.9.9,9.9,2.5-3.9-2.1-8.4,2.9-10.3-.7-1.6-1.5-3.5-2.8-6.3,2.3,1.4,3.6,2.1,4.8,2.9.2-.3.5-.5.7-.8Z" style="fill:#c8c0b9;"/><path d="M827.8,1004.6c.2,2.3.3,4.2.4,6.6,2.9-1.7-.6-6.5,4.4-5.5-1.1-2.3-4.9-3.8-1.9-7.3.2-.2-.8-3.1,0-4.9.1-.3-1.2-1.3-1.8-2-.5.6-1.7,1.5-1.5,1.7,1.9,3.2-1.3,4.6-2.8,7.3,1.9-.3,3-1.6,3.9-.1-1.3,1.7-2.6,3.4-4.5,5.8,1.8-.7,2.8-1.1,3.9-1.6Z" style="fill:#c8c0b9;"/><path d="M902.7,960.3c.2,0,.3,0,.4,0,0,1.5,3.7,4.3,4.4,5.7,2.3-1.1-3.3-4.7-4.1-6.3,0,0,0,.1-.1.2-.6-2-8.5-10.8-9.2-12.1-.4-.5-2.1-.7-2.5-.3-2.3,2.5-4.4,5.2-6.6,7.8,1.4,1.4,5.2-4.3,6.9-5.3,1.7,1.1-.5,4.1-.6,5.9-.2,2.1-.4,4.3-.5,6.4,3.6,0,3.1-2.3,2.6-4.4,1.7.1,3.2.3,5.2.4-.6-.9-1.4-3-2.3-4.4,0,0,0,0,0,0,2.2,2.1,4.5,4.2,6.7,6.2Z" style="fill:#c8c0b9;"/><path d="M1112.7,1027.5c.6-2.1,1.1-4,1.4-5,3.6-1.3,6.7-2.3,9.8-3.4l.3-.3c.6,0,1.2.1,1.7.2,3.5-1.5,7.2-2.2,11.1-2,1.8,0,3.7-.2,4.8-1.9.7-.3,1.4-.6,2-.9-4.9-.2-9.8-.5-15-.8,1-2.2,1.8-3.8,2.8-5.9-1.9,1.8-3.3,3.1-4.7,4.4.5-2.3,5.3-9.2.6-8.9-1.1,2.7-2.2,4.8-2.9,7-.3,1.2.1,2.6.2,4-.1.2-.1.5,0,.8-2.9.9-5.8,1.7-8.6,2.8-4.2,1.7-5.4,5.1-3.5,9.9Z" style="fill:#c8c0b9;"/><path d="M1311.8,983.8v5.4c.4.1.9.3,1.3.4-1-3.9,2.6-7.2.2-11.4,1.5.5,2.4.9,4.2,1.5-1.9-2.4-3.2-4.1-4.9-6.2,1.7.4,2.5.6,3.1.7-1-1.4-2-2.8-2.8-3.9-4.4,1.9.5,6.5-3,7.8.7.8,1.8,1.8,1.7,2-1.3,2.4-5.7,6.1.2,3.6Z" style="fill:#c8c0b9;"/><path d="M1164.7,1162.6c-.4-2.4-4.4-7.3-.2-5.8-4.8-1.7.4-6.6-3.1-8.7-.8,1.4-3.6,2.8-3.1,4.4.9-.2,2.4-1.7,2.8-.4-1.3,1.5-2.5,3.1-4.5,5.5,2-.9,2.9-1.3,3.8-1.7,1.5.8-2.8,5.1-4,7.5,2-1.3,2.9-1.9,4.1-2.7.2,2.5.4,4.7.6,6.9,1.7,0,.4-4.3.8-6.2,1.4.5,2.2.9,2.8,1.1Z" style="fill:#c8c0b9;"/><path d="M1381,1000.2c1.6,1.7,2.3,2.5,2.6,2.3.3.6.6,1.2,1.1,1.7.2-.4.5-.7.7-1.1.2-3.1,1.6-6.1-.5-9.6,1.4.6,2,.9,2.8,1.2-.7-1.9-1.8-3.6-1.7-5.1.1-1.4.7-1.4-1.5-3.8-1.1,1.1-2.2,2.3-3.6,3.8,1.3,0,2,0,3.3-.2-1.4,1.9-2.6,3.4-3.8,5,.7.9,2.1-.6,3.1-.8,2.6,1.4-5.9,5.9-2.6,6.5Z" style="fill:#c8c0b9;"/><path d="M1491.6,1088.5c.6,1.8-.5,7.3,1.7,6.6v-11.5c.9.4,1.5.7,2.5,1-.9-2-2.2-3.7-2.1-5.2.1-1.6.7-1.5-1.2-3.9-1.2,3-2.4,6-3.7,9.2.7-.3,1.7-.7,2.6-1.1,1.7,1.2-2.5,4.4-3.9,6.9,2-1,2.9-1.5,4-2Z" style="fill:#c8c0b9;"/><path d="M1476.2,1106.8c-1.2-2.1-2.3-4-3.6-6.3,1.6.3,2.3.5,3.1.7,0-2.3-4.1-3.1-1.8-6,1.4,2.1,2,1.5.3-.3h0c-1.5-3-1.6-2.2-3.2.2,2.2,1.7-.3,2.6-.6,3.9,0,0,0,0,0,0h0c-3.4,3.1-1.6,3.3,1.5,1.3-1.1,1.9-2.3,3.8-3.4,5.8,0,.2,0,.5.2.8,1-.5,1.9-.9,3-1.4.2,2.3.4,4.3.6,6.4,2,.2.5-4.3,1-6,1.3.5,2.1.7,3,1Z" style="fill:#c8c0b9;"/><path d="M738.9,1170.6c-8,.9-16,1.8-23.9,2.8,8.2.9,16.3.1,23.9-2.8Z" style="fill:#c8c0b9;"/><path d="M846.7,1060.7c3.1-.4,6.4,2.1,9.3-.7,1.6,1.2,3.3,1.2,4-.7.4-.9-.6-2.4-.9-3.6,0,0,0,0,0,0,0-.2,0-.3,0-.5.4-.9.9-2.8.9-4.5.3-1.6.6-3.2.9-4.7-.4-.8-2.8-2.2-3.6-3.1,0,0,0,0,0,0,0,0,0,0,0,0-1-1.3-1.9-3.6-3.1-3.7-1.7-.2-3.7.8-4.2,3.2-.1.7-1.4,1.8-1.5,1.8-4.6-3.2-2.1,7.9-2.3,9.9,0,0,.1,0,.2,0,.1.6.3,1.2.8,1.8-2.4,2.4-2.4,5.2-.2,4.9Z" style="fill:#c8c0b9;"/><path d="M1460,1001.8c-.4.5,0,1.8.2,4,4.1-5.4,7.6-9.9,11.1-14.4,0-.2,0-.3,0-.4,1.5-.5,3.8-4.8,4.9-5.6,0,0,0,0,0,0,2.6-2.8,5.1-5.6,7.7-8.3,0,0,0,0,0,0,.2.1.5.2,1,.1-1,2.7-2,5.3-3,8h0c-.1.3-.2.5-.2.6-1,2.5-5.2,8.6-2.9,8.8.4-1.9,3.7-6.2,3.6-8.4.1,0,.2,0,.4,0,1.7-3.6,3.4-7.3,5.2-10.9.8-1.1,1.6-2.2,2.5-3.3-.6,10.2-4.8,19-8.5,28.2-1.7,1.7-2.9,5.5-5.9,3.9-.6-.3,0-2.8,0-4.3,0-.2,0-.3,0-.5,0,0,0,0,0,0,0,0,0,0,0-.1,0,0,0,0,0,0h0c-.5,1.3-1.9,2.6-2.6,4.1-1.2,2.2,0,2.7,2,3,4.3.7,5.7-2.4,7.7-5,2.6,0,5.1,0,7.7,0-.2,3.4,1.2,5.1,4.8,4.9,5.7-.1,11.7.6,17.2-1.3,2.6-.9,5.2-3.7,7.4-3.3,2.2.4,3.8,3.8,5.6,5.8.4-.4.9-.7,1.3-1.1-1.7-2.1-3.5-4.2-5.4-6.6,3.3-1.6,6.1-3.1,9-4.3,3-1.2,3.3-2.6,1.7-5.6-3.7-6.8-6.9-13.8-10.3-20.8.3-.2.6-.4.9-.7,3.9,4,7.7,8,11.6,12,.2,0,.3.1.5.1.7,1.8,6,5.2,6.9,6.5h0c1,1.2,2.1,2.3,3.2,3.6,3-3.3,0-3.1-1.8-3.6-.1,0-.2,0-.3,0-.5-1.3-7.3-6.6-7.8-7.3,0,0-.1.1-.2.2-1.6-2.9-13-13.6-13.4-14.6-1.6-1.7-3.1-2.5-5.6-2.1-6.9.9-13.8,1.4-20.6,2.1-1.2.1-2.5.5-3.7.8-1.9,2.4-3.9,4.8-5.8,7.1-.5.6-1.6,1.7-2.1,2.6,0,0,0-.1,0-.2-.7,1.2-8,8.1-8.1,9.6-1.4.2-3.9,4.8-5.1,5.6,0,0,0,0,.1.1-2.3,1.4-10.1,10.5-10.7,11Z" style="fill:#c8c0b9;"/><path d="M1135.7,974.4c5.1,1.4,2.3,6.1,3.8,9.7.5-1.3,1.1-2,1.1-2.7.1-3.2.1-6.1,3.8-7.8,1.3-.6,2.6-3.4,2.2-4.6-1.3-4-3.4-7.8-5.4-11.6-.2-.3-1.6.1-2.5.2-1.3,2.6-3.9,5.3-3.6,7.7.5,3.1-3.5,6.5.5,9.1Z" style="fill:#c8c0b9;"/><path d="M1367,1157c0,0,0,0-.1,0,0,0,.1,0,.2,0h0Z" style="fill:#c8c0b9;"/><path d="M823.6,1030.7c3,3.5,6,7.1,9,10.6.1,0,.3.1.4.1.1,1.4,3.2,3.6,3.8,4.9,0,0,0,0,0,0,.4.9,2,2.8,2.3,3.5,2.3-3.3-.2-3.4-1.8-4-.1,0-.2,0-.3,0,0-1.4-3.1-3.8-3.7-5,0,0,0,0-.1.1-1.2-2.5-9-11-9.3-11.8-.6,1-.6,1.5-.4,1.8Z" style="fill:#c8c0b9;"/><path d="M1089,954.4c-3.8-.5-7.6-1-12.5-1.6,4.6,3.1,8.3,4.4,12.5,1.6Z" style="fill:#c8c0b9;"/><path d="M1589.5,1088.3c1.5-1.2,3.9-2.1,4.3-4.1-5.5-1.8-3.6-.1-4.3,4.1Z" style="fill:#c8c0b9;"/><path d="M1263.2,1063.8c1.8-2.6,3.5-5.1,5.2-7.5,0-.2,0-.3,0-.4,1.4-.5,3.7-4.8,4.8-5.7-1.3-1-4.1,4.4-5.6,5.4,0,0,0,0,0,0-1.1.9-3.3,3.9-3.9,3.7-3.4,1.6-1.5,3-.7,4.3Z" style="fill:#c8c0b9;"/><path d="M1278.6,1097.3c2.4,3.4,2.9,1.1,3.9-.3-3.1-1.5-5.8-2.7-8.5-4,1,1.5,3.5,2.6,4.6,4.3Z" style="fill:#c8c0b9;"/><path d="M1521.9,1100.6c-1.9,2.5-2.8,5,0,7.6v-7.6Z" style="fill:#c8c0b9;"/><path d="M1004.7,1125.2c-1.1,1.6-1.3-1.7-1.9-2.5-3,2,1.3,3.6,2.6,5.4.2-1.6.4-3.3.5-4.9-1.3-1.1-.9,1.1-1.2,2Z" style="fill:#c8c0b9;"/><path d="M1567.1,1125.8c0-.4.1-.7.2-1.1-2.5-.4-5-.8-7.6-1.2,2.1,3,4.7,2.7,7.4,2.3Z" style="fill:#c8c0b9;"/><path d="M1592.1,1128.2c0-.6,0-1.2.1-1.8-2.5-.1-5-.3-7.5-.4-1.2,2.7,5.4,1.6,7.3,2.3Z" style="fill:#c8c0b9;"/><path d="M719.2,1168.8h13.6c0-.2,0-.4,0-.5h-13.6v.5Z" style="fill:#c8c0b9;"/><path d="M1560.2,1022.1c-2.2.1-4.5-1.2-7.4,1.5h7.4c0-.5,0-1,0-1.5Z" style="fill:#c8c0b9;"/><path d="M773.1,1025.8c-.3-.4-.7-.8-1-1.2-2.9,2.8-5.8,5.5-8.6,8.3.6,1.8,8.1-6.3,9.6-7.2Z" style="fill:#c8c0b9;"/><path d="M1146.4,1045.4c.3-2.2-5.1-.6-6.8-1-.3,2.2,5.1.6,6.8,1Z" style="fill:#c8c0b9;"/><path d="M732,1159.4c-3.6.3-7.3.5-10.9.8,3.7.9,7.4,1.5,10.9-.8Z" style="fill:#c8c0b9;"/><path d="M1572.3,1125c-1.2,3,5.2,1.4,7.2,2.1,1.1-2.9-5.2-1.4-7.2-2.1Z" style="fill:#c8c0b9;"/><path d="M1618.2,1126.4c-3.2.3-5.7.5-8.1.7,3.7,2.2,4.6,2.2,8.1-.7Z" style="fill:#c8c0b9;"/><path d="M1604.8,1127.3h-7.4c2.6,1.8,5,2.2,7.4,0Z" style="fill:#c8c0b9;"/><path d="M1155.2,1066.9c1,2.5,4.7-1.9,6.6-2.5-1.2-3-4.6,1.7-6.6,2.5Z" style="fill:#c8c0b9;"/><path d="M1524.6,1111.9c-.3.5-.7.9-1,1.4,2.2,1.3,4.3,2.6,6.5,3.9,2.2-1.9-4.1-3.8-5.5-5.3Z" style="fill:#c8c0b9;"/><path d="M1542.1,1121.1c1.5-2.2-4.8-2.5-6.4-3.6-2.2,2.2,4.7,3.7,6.4,3.6Z" style="fill:#c8c0b9;"/><path d="M817.4,1075.4c0,1.9,5.1.4,6.7.9,0-1.9-5.1-.4-6.7-.9Z" style="fill:#c8c0b9;"/><path d="M794.5,1074.3c-.5,2.2,5,1,6.7,1.6.8-2.9-4.7-1-6.7-1.6Z" style="fill:#c8c0b9;"/><path d="M1547.1,1040.2c.2-4.5.1-4.6-3.1-5.6,1.1,2,2.1,3.8,3.1,5.6Z" style="fill:#c8c0b9;"/><path d="M1592.6,1025.6c.4-2.6-4.5-.6-6.3-1,0,2.1,4.6.5,6.3,1Z" style="fill:#c8c0b9;"/><path d="M1525,1096.6c1.1-2.3,2.2-4.6,3.3-6.9-2.1-1.9-3.4,4.5-4.8,6,.5.3,1,.6,1.4.9Z" style="fill:#c8c0b9;"/><path d="M1134.6,1045.9c.8-2.8-4.4-1.2-6.2-1.8-.8,2.8,4.3,1.2,6.2,1.8Z" style="fill:#c8c0b9;"/><path d="M1150,1093.1c-2.2,2.4,3.8,3.1,5.4,4.4,1.7-2.1-4-3.1-5.4-4.4Z" style="fill:#c8c0b9;"/><path d="M806,1075.2c-.5,2.1,5,1,6.6,1.6,1-3-4.7-1.1-6.6-1.6Z" style="fill:#c8c0b9;"/><path d="M996.4,1006c.6-2.8,1.2-5,1.9-8.2-3.3,4.1-3.4,4.6-1.9,8.2Z" style="fill:#c8c0b9;"/><path d="M996.4,1017c.6-2.8,1.2-5,1.9-8.2-3.3,4.1-3.4,4.6-1.9,8.2Z" style="fill:#c8c0b9;"/><path d="M1086.1,1006.7h7.3c-2.3-1.9-4.6-2.2-7.3,0Z" style="fill:#c8c0b9;"/><path d="M1127.6,1147.9c.5,3.2,4.8-.8,6.9-1.1-.4-2.9-4.9.9-6.9,1.1Z" style="fill:#c8c0b9;"/><path d="M1554.4,1124.3c1.4-2.9-4.9-2.1-6.9-3-1.3,2.5,5.1,2.1,6.9,3Z" style="fill:#c8c0b9;"/><path d="M1505,1062c2.6-2.1-2.9-3.4-4.3-5-2,1.9,3.1,3.5,4.3,5Z" style="fill:#c8c0b9;"/><path d="M1510.7,1040.7c-2.1-.7-4.1-1.5-6.5,1.1h6.6c0-.4,0-.7,0-1.1Z" style="fill:#c8c0b9;"/><path d="M1306.9,1005.5c.1,1.8,4.2.3,5.7.8-.1-1.8-4.2-.3-5.7-.8Z" style="fill:#c8c0b9;"/><path d="M1081.7,1007.7c.4-3.5-4.4-.4-6.6-.5-.2,2.7,4.7.3,6.6.5Z" style="fill:#c8c0b9;"/><path d="M1524.4,1078.4c1.3,2.2,2.5,4.3,3.7,6.4.1-4.8-.3-5.4-3.7-6.4Z" style="fill:#c8c0b9;"/><path d="M1104.4,1008.9c1.4-2.6-4.3-2.1-6-3.1-1.4,2.8,4.2,2.1,6,3.1Z" style="fill:#c8c0b9;"/><path d="M1604.7,1011.5c-3,0,0,4.5,0,6.5,3,0,0-4.5,0-6.5Z" style="fill:#c8c0b9;"/><path d="M862.2,1070.6c.5,2.8,5-1.5,6.8-1.9-.6-2.8-4.9,1.4-6.8,1.9Z" style="fill:#c8c0b9;"/><path d="M1144.7,1142.1c-.6-3-4.7,1.2-6.7,1.6.6,2.8,4.8-1.2,6.7-1.6Z" style="fill:#c8c0b9;"/><path d="M1622.4,1126.1c.1,2.7,5.5-.8,7.5-.8,0-3.1-5.4.7-7.5.8Z" style="fill:#c8c0b9;"/><path d="M877.9,1031.3c1.2,2.7,4.7-1.8,6.6-2.5-.8-2.7-4.8,1.9-6.6,2.5Z" style="fill:#c8c0b9;"/><path d="M1064.2,1009c0,2.7,5,0,6.9.2.1-3.2-4.8,0-6.9-.2Z" style="fill:#c8c0b9;"/><path d="M1060.6,1011.4c.1-3.2-4.8,0-6.9-.2,0,2.7,5,0,6.9.2Z" style="fill:#c8c0b9;"/><path d="M1049.9,1013.9c.1-3.2-4.8,0-6.9-.2,0,2.7,5,0,6.9.2Z" style="fill:#c8c0b9;"/><path d="M1036,1014.8c.1-3.2-4.8,0-6.9-.2,0,2.7,5,0,6.9.2Z" style="fill:#c8c0b9;"/><path d="M1023.8,1017.1c.1-3.2-4.8,0-6.9-.2,0,2.7,5,0,6.9.2Z" style="fill:#c8c0b9;"/><path d="M1011.4,1021.2c.1-3.2-4.8,0-6.9-.2,0,2.7,5,0,6.9.2Z" style="fill:#c8c0b9;"/><path d="M996.8,1018.2c-1.5,2.2,3.5,2.6,4.9,3.7.4.2.9,0,1.1-.5.2-.4,0-.8-.4-1l-5.5-2.2Z" style="fill:#c8c0b9;"/><path d="M1217.2,1023c.2-2.7.3-4.7.4-6.6-2.5,2-2.9,4-.4,6.6Z" style="fill:#c8c0b9;"/><path d="M1596.1,1004.2c-1.8,2.1,3.5,3.2,4.8,4.6,2.1-2.4-3.3-3.2-4.8-4.6Z" style="fill:#c8c0b9;"/><path d="M999.7,994.7q3.3-3.5,1.9-6.5c-.7,2.4-1.3,4.4-1.9,6.5Z" style="fill:#c8c0b9;"/><path d="M1522.2,1075.7c2.1-1.8-2.8-3.6-3.9-5.2-2.8,2,2.5,3.5,3.9,5.2Z" style="fill:#c8c0b9;"/><path d="M915.6,997.7c-1.9-.9-4.7-2.4-7.5-3.8l-.3.2c1.7,4.7,5.6,3.5,7.8,3.6Z" style="fill:#c8c0b9;"/><path d="M922,1019.8c0,2.9,4.8-.2,6.8-.2,0-2.8-4.9.2-6.8.2Z" style="fill:#c8c0b9;"/><path d="M917.8,1021.5c.1-3-4.8-.2-6.8-.3,0,3.2,4.7.2,6.8.3Z" style="fill:#c8c0b9;"/><path d="M1114.6,1037.8c-.9-2.3-1.7-4.3-2.5-6.3q-.6,4.6,2.5,6.3Z" style="fill:#c8c0b9;"/><path d="M1151.9,1070c-1-2.5-4.7,2.2-6.6,2.8,1.3,2.9,4.6-2,6.6-2.8Z" style="fill:#c8c0b9;"/><path d="M1491.8,1050.8c-2,2.1,3.2,3.1,4.6,4.6,1.9-2-3.3-3.2-4.6-4.6Z" style="fill:#c8c0b9;"/><path d="M965.6,1071.4c2,2.1,3.1-1.5,4.6-2.7-3.5,1.9-2.1-1.8-3.5-2.5-.4,1.8-.8,3.5-1.1,5.2Z" style="fill:#c8c0b9;"/><path d="M1291.3,1003.7c.8-3.2-4.3-1.2-6.4-1.7.4.6.8,1.2,1.2,1.7,1.7,0,3.5,0,5.2,0Z" style="fill:#c8c0b9;"/><path d="M1541.1,1033c-.9-2.8-1.4-4.7-2.2-7.2-1.7,3-1,4.9,2.2,7.2Z" style="fill:#c8c0b9;"/><path d="M1258.8,1005.1c-.1-2.6-4.3-.1-6.1-.3-.5,3.1,4.2.2,6.1.3Z" style="fill:#c8c0b9;"/><path d="M1323.7,1005.8c.5-3.3-3.9-.7-6-.8,0,2.5,4.2.5,6,.8Z" style="fill:#c8c0b9;"/><path d="M875.8,1035.7c-2.2-1.7-2.9,4.2-4.1,5.7,2.2,1.7,2.9-4.2,4.1-5.7Z" style="fill:#c8c0b9;"/><path d="M1409.4,1036.7c2-2.3-3.1-3.1-4.5-4.5-2,2.1,3.2,3.1,4.5,4.5Z" style="fill:#c8c0b9;"/><path d="M1552.3,1009c-2.8-2.4-2.7-1.6-5.2-.1,1.6,2.1,2.7.9,5.2.1Z" style="fill:#c8c0b9;"/><path d="M821.1,1035.9c.3.7.6,1.5,1,2.1-.1-.4-.5-1.2-1-2.1Z" style="fill:#c8c0b9;"/><path d="M996.8,1149.3c-.8.1-1.6.8-2.4,1.3.4.6.8,1.1,1.4,1.9,1-.7,1.8-1.2,2.6-1.7-.5-.5-1.1-1.5-1.5-1.4Z" style="fill:#c8c0b9;"/><path d="M977.8,981.6c.3-3.3-4.5-.2-6.5-.3,0,2.5,4.7,0,6.5.3Z" style="fill:#c8c0b9;"/><path d="M994.1,980.7c-1.9,2.3,3.8,2.9,5.4,4.1,1.8-2.2-3.9-2.9-5.4-4.1Z" style="fill:#c8c0b9;"/><path d="M967,984c-.7-2.9-4.8,1.4-6.8,1.8.7,2.9,4.8-1.4,6.8-1.8Z" style="fill:#c8c0b9;"/><path d="M1220.7,1012.7c.4,2.7,4.2-.5,6.1-.6-.4-2.8-4.2.5-6.1.6Z" style="fill:#c8c0b9;"/><path d="M1172.1,1053.6c0,2.8,4.2.1,6.1.3,0-2.8-4.2-.1-6.1-.3Z" style="fill:#c8c0b9;"/><path d="M1167.6,1051.3c1.9-1.7-3.5-3.6-4.6-5.1-2.4,2,3.3,3.6,4.6,5.1Z" style="fill:#c8c0b9;"/><path d="M939.8,1016.7c0-3.1-4.8.4-6.7.6.2,2.7,4.8-.5,6.7-.6Z" style="fill:#c8c0b9;"/><path d="M1148.3,1138.3c.9,2.7,4.5-1.7,6.4-2.3-.9-2.9-4.5,1.7-6.4,2.3Z" style="fill:#c8c0b9;"/><path d="M1210,1044.7c-.5-2.6-4.1.5-6,.5.3,3.2,4-.3,6-.5Z" style="fill:#c8c0b9;"/><path d="M899.5,1023.2c0,2.4,5.1,0,6.9.1.2-2.9-5,0-6.9-.1Z" style="fill:#c8c0b9;"/><path d="M1157.7,1045.8c.2-2-4.7-1-6.4-1.7-.8,3.1,4.3,1.2,6.4,1.7Z" style="fill:#c8c0b9;"/><path d="M1475.4,1072.2c-.2-2.9-4.2-.4-6.2-.6,0,2.9,4.2.4,6.2.6Z" style="fill:#c8c0b9;"/><path d="M1575.6,1024c-.7,2.5,4.2,1.3,5.9,2,.7-3.1-3.9-1.4-5.9-2Z" style="fill:#c8c0b9;"/><path d="M1117.7,1040.8q3.1,3.4,6.5,2.5c-2.4-.9-4.4-1.7-6.5-2.5Z" style="fill:#c8c0b9;"/><path d="M946.3,1099.8c2.9.3.6-4.2.9-6.1-2.7-.2-.6,4.2-.9,6.1Z" style="fill:#c8c0b9;"/><path d="M1489.4,1042c.3-3.1-4.3-.4-6.3-.6-.1,3,4.3.4,6.3.6Z" style="fill:#c8c0b9;"/><path d="M1220.1,1040.5c-.8-2.9-4.1.9-6.1,1.4.8,2.7,4.2-1,6.1-1.4Z" style="fill:#c8c0b9;"/><path d="M1418.9,1042.8c2.1-2-3.1-3.3-4.3-4.8-2.3,2,3,3.3,4.3,4.8Z" style="fill:#c8c0b9;"/><path d="M944,1013.4c.5,3.2,4.3-1.8,6-2.4-1-2.4-4.3,1.9-6,2.4Z" style="fill:#c8c0b9;"/><path d="M1395.6,1026.9c-1.9,2.2,3.4,2.8,4.8,4.1,1.6-2-3.5-2.8-4.8-4.1Z" style="fill:#c8c0b9;"/><path d="M1393.5,1026.5c1.6-2-3.5-2.8-4.8-4.1-1.9,2.2,3.4,2.8,4.8,4.1Z" style="fill:#c8c0b9;"/><path d="M1385.3,1021c1.6-2-3.5-2.8-4.8-4.1-1.9,2.2,3.4,2.8,4.8,4.1Z" style="fill:#c8c0b9;"/><path d="M1371.3,1011.9c-1.9,2.2,3.4,2.8,4.8,4.1,1.6-2-3.5-2.8-4.8-4.1Z" style="fill:#c8c0b9;"/><path d="M1359.1,1009.2c-1.9,2.2,3.4,2.8,4.8,4.1,1.6-2-3.5-2.8-4.8-4.1Z" style="fill:#c8c0b9;"/><path d="M1189,1051.3c-.2-2.7-4.1,0-5.9,0,0,3.2,4,0,5.9,0Z" style="fill:#c8c0b9;"/><path d="M1248,1007.2c-.2-2.7-4.1,0-6,0,0,3.2,4,0,6,0Z" style="fill:#c8c0b9;"/><path d="M1487.1,1049.3c2.1-2.1-3.2-3-4.5-4.3-1.9,2,3.2,3,4.5,4.3Z" style="fill:#c8c0b9;"/><path d="M1169.6,1118.7c-2.3-1.9-2.9,3.4-4.2,4.9,2.2,1.8,2.9-3.5,4.2-4.9Z" style="fill:#c8c0b9;"/><path d="M1474.1,1052.8c-2.6.8,1.3,4.2,1.8,6.1,2.7-1.3-1.2-4.1-1.8-6.1Z" style="fill:#c8c0b9;"/><path d="M1221.5,1024.5c-1.6,2.1,3.1,2.6,4.4,3.8,1.6-2.1-3.1-2.6-4.4-3.8Z" style="fill:#c8c0b9;"/><path d="M1301.7,1005.5c.9-2.6-3.6-1.7-5.3-2.5-1,2.6,3.7,1.7,5.3,2.5Z" style="fill:#c8c0b9;"/><path d="M1163.2,1128.1c-1.4-2-4.1,2.9-5.7,3.8,1.5,2.7,4-2.7,5.7-3.8Z" style="fill:#c8c0b9;"/><path d="M1269.6,1003.8c-.5-.6-1-1.7-1.4-1.7-1.7,0-3.5.5-5.2.8,1.9,2.6,4.4.5,6.6.8Z" style="fill:#c8c0b9;"/><path d="M1237.1,1009.9c0-2.8-3.9.1-5.7.1.2,2.4,4-.2,5.7-.1Z" style="fill:#c8c0b9;"/><path d="M1145.2,1091.7c.6-1.4-3.3-3.5-4.3-5-.9.9,3.4,3.7,4.3,5Z" style="fill:#c8c0b9;"/><path d="M957.3,990c-1.7-2.4-3.6,3-5.2,4.2,1.7,2,3.6-3.1,5.2-4.2Z" style="fill:#c8c0b9;"/><path d="M1199.7,1048.3c-.2-2.8-4.4.4-6.3.5,0,2.9,4.4-.4,6.3-.5Z" style="fill:#c8c0b9;"/><path d="M1431.4,1049.5c-2.4,2.1,2.7,3.1,4.1,4.6,1.9-2-2.8-3.1-4.1-4.6Z" style="fill:#c8c0b9;"/><path d="M1464.1,1071.2c1.2-1.9-3.5-2.6-4.8-3.8-1.8,2.6,3.1,2.6,4.8,3.8Z" style="fill:#c8c0b9;"/><path d="M1426.7,1048.2c2-1.9-2.8-3.2-4-4.7-2,2.1,2.7,3.2,4,4.7Z" style="fill:#c8c0b9;"/><path d="M1164.9,1060.5c1.8,1.7,3.2-3.3,4.5-4.4-1.8-2.2-3.2,3.2-4.5,4.4Z" style="fill:#c8c0b9;"/><path d="M755.3,1056.1c-2.8,1.1,1.9,4.1,2.7,5.9,2.1-1.2-2.1-4.2-2.7-5.9Z" style="fill:#c8c0b9;"/><path d="M1536.5,990.7c-.1,2,2.8.7,4.2,1.1.5-2.8-2.5-1-4.2-1.1Z" style="fill:#c8c0b9;"/><path d="M1138.4,1081.2c2.3,1.2,2.7-3.3,4-4.8-2.1-1.5-2.7,3.4-4,4.8Z" style="fill:#c8c0b9;"/><path d="M1603,1022.3c-.8-2.2-4,1-5.7,1.2.2,2.9,3.9-.9,5.7-1.2Z" style="fill:#c8c0b9;"/><path d="M1169.2,1113.6c2.9-.3-.4-4.5-.5-6.5-2.7.2.5,4.7.5,6.5Z" style="fill:#c8c0b9;"/><path d="M1454.4,1066.3c1.8-1.9-3-3-4.2-4.5-2,2,2.9,3,4.2,4.5Z" style="fill:#c8c0b9;"/><path d="M1227.3,1031.8c-1.4,2-2.6,3.6-3.7,5.2q3.7-1.7,3.7-5.2Z" style="fill:#c8c0b9;"/><path d="M1473.3,1048.5c1.5-1.2,2.9-2.5,5.2-4.4q-4.7,1-5.2,4.4Z" style="fill:#c8c0b9;"/><path d="M1543.2,1023.7c.2,2.8,4.1,0,6.1.2,0-2.4-4.4,0-6.1-.2Z" style="fill:#c8c0b9;"/><path d="M1109.5,1009.8c-2.7,1.3,2.1,4.2,2.9,6.1,2.3-1-2.3-4.4-2.9-6.1Z" style="fill:#c8c0b9;"/><path d="M1478,1061.9v7.2c2.3-2.7,2.3-4.6,0-7.2Z" style="fill:#c8c0b9;"/><path d="M727.2,1157.5c0-2.9-3.6-.3-5.5-.3.1,2.2,3.8.1,5.5.3Z" style="fill:#c8c0b9;"/><path d="M1164.5,1103.8c2.2-1.8-3.3-3.5-4.6-5-1.7,1.6,3.5,3.6,4.6,5Z" style="fill:#c8c0b9;"/><path d="M828.9,1075.4c-.3,2.2,4.8.3,6.4.6-.9-1.5-4.5-.2-6.4-.6Z" style="fill:#c8c0b9;"/><path d="M1274.3,1002.4c0,2.1,4.8-.4,6.5-.3-2.2-1.3-4.2-.5-6.5.3Z" style="fill:#c8c0b9;"/><path d="M1009.1,1138c1.9,1.3,2.2,1,4.1-.7-2.4-1.1-2.8-1.4-4.1.7Z" style="fill:#c8c0b9;"/><path d="M1123.6,1151c-.4-2.7-4.7.8-6.6.9.4,2.6,4.7-.8,6.6-.9Z" style="fill:#c8c0b9;"/><path d="M767.1,1069.2c2.3-1.9-3.3-2.9-4.7-4.3-1.5,1.8,3.5,3,4.7,4.3Z" style="fill:#c8c0b9;"/><path d="M1513.2,1068.3c2.1-1.8-2.3-3.1-3.4-4.6-2,1.7,2.3,3.1,3.4,4.6Z" style="fill:#c8c0b9;"/><path d="M998.7,1144.5c.9,0,1.9,0,2.8,0,.6-2.3-1.6-1.2-3-1.2,0,.4.1,1.1.2,1.2Z" style="fill:#c8c0b9;"/><path d="M1328.2,1004.9c1.2,0,11.6,1.3,3.7.2.4-.7.8-1.3,1.3-2-1.8,0-4.1-.9-4.9,1.8Z" style="fill:#c8c0b9;"/><path d="M1337.4,1005.7c1.2,0,11.6,1.3,3.7.2.4-.7.8-1.3,1.3-2-1.8,0-4.1-.9-4.9,1.8Z" style="fill:#c8c0b9;"/><path d="M1348,1010c1.2,0,11.6,1.3,3.7.2.4-.7.8-1.3,1.3-2-1.8,0-4.1-.9-4.9,1.8Z" style="fill:#c8c0b9;"/><path d="M871.8,1057.6c-1.6.2-.3,5-.7,6.6,1.6-.2.3-5,.7-6.6Z" style="fill:#c8c0b9;"/><path d="M1570.5,1024.4c.5-2.4-3.8-1.1-5.5-1.7-.6,2.4,3.8,1.1,5.5,1.7Z" style="fill:#c8c0b9;"/><path d="M863.7,1133.6c.1,0,.2,0,.3,0,.6.3,1.6.9,1.6.8,2-2.5,3.6-.8,5.2.4,1.6.7,6.9,6.4,7.6,4.8-4.3-4.5-8.5-8.9-13-13.6-4.5,4-8.9,8.1-13.3,12.1.8,2.4,6.9-4.1,8.8-5,0,0,0,0,0,0,0,.5-.4,1.7-.7,3.1,1.1-1,3.4-1.9,3.5-2.5Z" style="fill:#c8c0b9;"/><path d="M1543.1,1042.8c-.5-1.4-4-.2-5.6-.6.5,1.4,4,.2,5.6.6Z" style="fill:#c8c0b9;"/><path d="M988.4,980.9c-.3-1.6-4.1-.3-5.7-.7.3,1.6,4.1.3,5.7.7Z" style="fill:#c8c0b9;"/><path d="M1532.5,1042.8c-.3-1.5-4-.2-5.5-.6-.2,1.4,4.2.3,5.5.6Z" style="fill:#c8c0b9;"/><path d="M950.1,1005.1c1.5,1,.4-4.3.7-5.6-1.6.3-.3,4-.7,5.6Z" style="fill:#c8c0b9;"/><path d="M871,1052.5c1.6-.9.3-4.2.7-6-1.6.2-.3,4.5-.7,6Z" style="fill:#c8c0b9;"/><path d="M1556.8,1101.5c-1.5-1.1-1.8,2-2.7,2.9,1.8,1.4,1.8-1.8,2.7-2.9Z" style="fill:#c8c0b9;"/><path d="M719,1164c0,2.4,3.5.3,5.4,0-1.6.1-3.7,0-5.4,0Z" style="fill:#c8c0b9;"/><path d="M998.3,1130.5c-1.2,1.5-2.4,2.1,0,2.5,1.9-.9,1.3-1,0-2.5Z" style="fill:#c8c0b9;"/><path d="M1045.2,1093.7c2.6-1.1-1.2-3.2-2-4.9-.9,1.2,1.6,3.4,2,4.9Z" style="fill:#c8c0b9;"/><path d="M1169,1196c-1.6-.4-3.4-1.2-5.1-1.8-.9,2.4,3.5,1.2,5.1,1.8Z" style="fill:#c8c0b9;"/><path d="M1521.6,1042.3c.2-2.1-4-.5-5.6-1-.7,1.5,4.3.6,5.6,1Z" style="fill:#c8c0b9;"/><path d="M1212.7,1089.8c-1.1-1.6-2.2.9-3.3,1.6.8,1.3,2.3-1.1,3.3-1.6Z" style="fill:#c8c0b9;"/><path d="M1272.7,1049.8c1.2.9,2.4-2.7,3.6-3.6-1.3-.6-2.4,2.7-3.6,3.6Z" style="fill:#c8c0b9;"/><path d="M1266.9,1087c-1.4,1.2,1.6,2.1,2.3,3,1.4-1.2-1.6-2.1-2.3-3Z" style="fill:#c8c0b9;"/><path d="M851.7,1102.9c-.8,1.5,2.2,1.4,3.1,2.1,1.3-1.6-2.1-1.4-3.1-2.1Z" style="fill:#c8c0b9;"/><path d="M739.9,1096.9c1-.3,1.6-.5,1.8-.7.1,0,.3-.1.4-.2,16.2-4.6,29.5-13.5,39-27.4,1.7,3.2,3.1,6.2,4.8,9,4,7.2-10,1.2-9.6,8.9-.9,9.5-11.7,1.4-15.1,9.5-2.9.3-5.8.6-8.6,1,0,.5.1.9.2,1.4,1.2-.5,7-.5,8.7-1.3.2,0,.5,0,.8,0,9.8-7.3,15.3,4.4,11-2.8,2.1-1.1,5.5-2.5,5.3-2.9-1.3-4.8,2.2-.8,2.8-1.6q-1.1-2.2.7-2.5h0c.5.6,1.5,1,2.2,1.6,1.1-1.2-1.3-1.4-2.1-2-.7-.8-1.3-1.7-2-2.5,3.9,1.7,8.4-.8,11.9,2,.9.7,2.3.9,3.5,1.3-2.1-1.7-4.7-2.7-6.8-4.3-2.3-1.7-.6-2.2,1.2-2.3,2.1,1.4,4.1,3.5,7,1.8,6.9,4,13.9,8.1,20.8,12.1-3.9,6.8-10.5,10.8-16.4,15.7-2.7-2.1-5.5-4.1-8.1-6.4-2.2-1.9-4-2-6.1,0-1.8,1.7-4,3.1-5.5,5-2.2,2.7-3.7,1.9-5.5-.2-2.8-3.1-8.3-10.2-12.1-10.5-2.2.2-4.1,4-6.1,6.1-1.5,1.5-3.1,3-4.7,4.5-7.3,6.9.1,2.5,3.2-.2,2.5-1.7,4.8-3.9,8.9-.5-1.1-2.1-4.4-4.6-2.8-5.1,2.2,1.9,4.5,3.7,6.7,5.6,2.6-1.9-2.1-2.8-3.4-4.2,5.6.8,8.1,5,11.8,8.7-7.1,3.1-15.2,3.6-18.9,12.6,4.8-3.1,7.9-5.9,12.8-8,6.8-2.1,10.9-7.8,16.6-11.6.4-.3,1.3-.1,1.7.2.3.3.5,1.5.3,1.6-4.3,3.3,1.1,8.5-3.6,11.9,5.3-.2,4.6-2.9,4.2-5.5-.2-1.2.2-2.5.4-4.2,2.5,2.2,4.4,3.8,6.3,5.4,2.3-1.3-3.9-5.1-4.8-6.8.3-.4.7-.7,1-1.1,5,4.4,9.7,9,15,13,.2-.2.3-.3.5-.5-.9,1.4,3,2.9,4,4.2,1.4-1.7-2.9-2.9-4-4.2h0c-2.2-2.9-4.3-5.7-6.6-8.8,4.9-3.4,10.1-5.4,13.4-10.1,6.5-12,20.9-15,28.6-25.6,1.8-1.5,4.1-6.6,6.6-3.4,3,3.7,2.3,5.8-3.2,8.6-6.7,3.5-6.8,3.5-2.6,9.5,1.6,2.3,1.3,3.6-1.4,4.2-14.9,2.5-20.7,5.1-4.4,14.6-2,2.5-3.8,4.7-5.6,7,2.1-.3,4.5-.9,5.4-2.4,1.4-2.2,2.5-1.7,4.1-.9,1.3-.2-.8-1.5-1.4-2.4,7,0,1-1.6-1-4,.8-.2,3.2,1.2,3.6,0-1.7-.6-5.5-4.1-7.6-4.3-.6-1.1-2.7-1.6-2.1-2.6.5,0,3.1,1.1,4,1,0,0,0,0,0,.1,1.6.4,5.5,4.3,6.1,2.1-1.2-.3-5-3.1-6-2.7,0-.1-.2-.2-.3-.4,0-.4-.3-1.1.3-1,1.8.1,8.5,3.7,8.9,2.2-1.6-.8-3.2-1.6-5.1-2.6,2.6.1,5.7-1.9,6-3.6,3.6.4,14.2,4.6,6-1.1,0,0,0,0,0,0,0,0-.2,0-.2-.1,0,0,0,0-.1,0,.8.4,1.7,0,2.6,0,.3-2-3.9-1.6-5.4-2.5-.7.3-1.3.3-1.8-.3-.9-.6-1.4-.7-1.6-.6-.1-.1-.2-.2-.4-.3-1.6-1.8-1.4-1.9,1-1.9.3.1.5.2.7.1,1.4.3,2.8.6,4.3,1h0c2.4,1.3,3.4,0,.3-.3,0,0,0,0,0,.1,0,0,0-.1,0-.1-1.3-.3-3-1.7-4.2-1.5,0,0,0-.2,0-.2-9.6-3.5,2.8-.8,6.7-.2-2.9-1.3-12.6-4.3-4.6-3.9h0c1.8,0,7.8,3.5,7.9,1.3-1.5,0-6.4-2.7-7.6-2,0-.1,0-.3-.2-.4,4-1.9,7.4-.3,10.4,2,7.6,5.8,15.2,11.8,22.4,18,13.9,13.7,21.4,5.7,9.9,14.2,1,2.6,5.3-2.4,7.2-3.1.9-.6,2.3-2.1,2.7-1.9,3.4,1.8,1.3-1.8,2.4-2.3,5.6,4.7,4.1,2.1.8-1.6,1.5-2.1,6.4,6.6,7.8,4.3-7.8-9.6,6.2,2.6,8.4,4.6.3-.4.6-.8.9-1.2-5.1-4.6-10.2-9.3-15.6-14.1-2.8,3.5-4.7,9.1-9.4,8.8-3.5-1.4-7.1-3.1-10-5.4-10.7-9.2-23-17.6-31.3-29.2-6.3-9.3-11.6-4.5-18.5.3,1,3-1.8,3.6-3.2,4.8-4.7,4.2-9.7,8-14.5,12.1-1.6,1.4-2.9,1.8-4.8.5-10-7.1-23.4-11-28.4-23.2-2.5-4.5-6.6-7.5-10.2-2.2-1.9,2.3-3.7,3.6-7.1,2.5,3.2,3.1,3.3,3.2,1,6.1-3.8,4.1-9.1,6.7-13.8,9.6-6.3,3.3-12.7,6.4-19.1,9.6-1.4.9-2.6,1.3-.2,1.8Z" style="fill:#c8c0b9;"/><path d="M1366.9,973.1c1.8,2,2.1-1.9,3.1-3.1-.6,1-2.1,2.1-3.1,3.1Z" style="fill:#c8c0b9;"/><path d="M999.4,1074.3c.8,1.4,2.4-1.2,3.5-1.7-.8-1.5-2.4,1.2-3.5,1.7Z" style="fill:#c8c0b9;"/><path d="M1278.3,1043c-.7.9-1.7,1.9-2.4,2.8.7.7,1.6-1.4,2.4-2.8Z" style="fill:#c8c0b9;"/><path d="M1279,1041.9c-.2.2-.5.6-.7,1.1.3-.4.5-.7.7-1.1Z" style="fill:#c8c0b9;"/><path d="M1007.1,1125.8c-.2.6,0,1.3.2,2,1.4.4,1.1-2,1.7-2.9-.7-1-1.5.2-1.9.9Z" style="fill:#c8c0b9;"/><path d="M945.4,945.1c-1,.1-2.3,0-3.3.2,0,1.6,2,.2,3.3-.2Z" style="fill:#c8c0b9;"/><path d="M1203,1098.7v-2.7c-3.1.8-1.4,1.5,0,2.7Z" style="fill:#c8c0b9;"/><path d="M1587.2,1087.7c1.2,0,.3-2.6.5-3.7-1.5-.1-.3,2.6-.5,3.7Z" style="fill:#c8c0b9;"/><path d="M967,932.7c0-1.2-2.3-.3-3.2-.6,0,1.2,2.3.3,3.2.6Z" style="fill:#c8c0b9;"/><path d="M1502.8,1096.1c1.2,1.5,1.5-.8,2.1-1.9-.5.6-1.5,1.3-2.1,1.9Z" style="fill:#c8c0b9;"/><path d="M927.7,1150.1c-1.4-.2-.3,2-.5,2.9,1.3.1.3-2,.5-2.9Z" style="fill:#c8c0b9;"/><path d="M950.9,1097.5c-1.5-.9-1.4,2-2.1,2.9,1.5,1,1.4-2,2.1-2.9Z" style="fill:#c8c0b9;"/><path d="M964.8,1068c-1.8-.2-.5,2.5-.7,3.7,1.4,0,.4-2.6.7-3.7Z" style="fill:#c8c0b9;"/><path d="M946,945c1.6-.4,3.5-.6,5-1-1.6.4-3.7.5-5,1Z" style="fill:#c8c0b9;"/><path d="M1169,1196c1.7.3,3.4.7,5,1-1.7-.3-3.4-.8-5-1Z" style="fill:#c8c0b9;"/><path d="M1145.3,1163.8c-1,.6,1.3,1.5,1.8,2.1.9-.5-1.3-1.5-1.8-2.1Z" style="fill:#c8c0b9;"/><path d="M1211.7,1099.8c-.9,1-2.2,2.2.4,2.4,3.6.5,8.5-.4,11.7.3,2.9,5,6.1,1.4,9.2.5,2.4-.3,1.2-3.9,4.6-4.2,4.2-.4,7.9-1.2,10.4,3,0,0,0,.2,0,.2,0,0,0,0,0,0,8.5,6.5,6.9,0,14.5.2,2.7-.2,5.5,0,9.4,0-6.4-8.2-12.5-15.3-16.3-23.8,1.8,1,6.8,7.4,7.9,6.1-5.1-5.5-10.3-11-15.4-16.6-.1.1-.2.3-.3.4,0,0,0-.2-.1-.3,0,0,.2,0,.3,0,.4-.4-.6-1.7-.7-2.3-1.7-3.6-3.3-7.3-5-10.9-.5,0-1,0-1.5,0-1.6,3.3-3.2,6.6-4.9,9.9-2.6,3.1-5.2,6.2-7.8,9.2-2.1,1.3-3.6,2.9-2.1,4.9,0,0,0,0,0,0-4.1,5.9-8.2,11.8-12.3,17.8,0,0,.1.2.2.2-.8-.1-1.5,2.2-2.2,2.8Z" style="fill:#c8c0b9;"/><path d="M1271.8,1091c-1.3,1.2,1.3,1.4,2.1,2.1-.2-.7-1.5-1.4-2.1-2.1Z" style="fill:#c8c0b9;"/><path d="M728.2,1164c0-2-2-.1-3.1,0,.7-.2,2.2,0,3.1,0Z" style="fill:#c8c0b9;"/><path d="M1614.9,1048.7c-1.1-1-1.5,0-2.4.6.8.9,1.5-.2,2.4-.6Z" style="fill:#c8c0b9;"/><path d="M1313,1153.6h0c3.5,3.4,5.2,1.8.6-.6h0s0,0,0,0c0,0,0,0,0,0-4.1-2.4-4.6-2.8-.6.6Z" style="fill:#c8c0b9;"/><path d="M815.7,959c-1,.9.9,1.3,1.6,1.9.9-.9-1-1.3-1.6-1.9Z" style="fill:#c8c0b9;"/><path d="M913.9,992c.8,0,1.8.6,2.7.8.7-1.5-1.8-.6-2.7-.8Z" style="fill:#c8c0b9;"/><path d="M945.7,940c-.5,0-1.5,0-2.1,0-.1,1.4,1.2.3,2.1,0Z" style="fill:#c8c0b9;"/><path d="M1367,1157c0,0,.2,0,.3-.1-.1,0-.2,0-.3.1Z" style="fill:#c8c0b9;"/><path d="M1367.3,1156.9c.5-.1,1.3,0,1.8-.2-.1-1.2-1.1-.2-1.8.2Z" style="fill:#c8c0b9;"/><path d="M857.2,1087.1c.6.1,1.2.6,1.8.8.7-1.2-.8-.8-1.8-.8Z" style="fill:#c8c0b9;"/><path d="M1417.1,971.8s.2-.2.4-.2c-.4-.6-.8-1.2-1.2-1.8-1.7-.7.3,1.5.8,2.1Z" style="fill:#c8c0b9;"/><path d="M857.1,957.1c1.9.9,2,.1,0,0h0Z" style="fill:#c8c0b9;"/><path d="M856.9,957s0,0,0,0c0,0,.2,0,.3,0,0,0-.1,0-.2,0Z" style="fill:#c8c0b9;"/><path d="M1471,1095c-.5.4-1.2.8-1.7,1.2.3.9,1.2-.9,1.7-1.2Z" style="fill:#c8c0b9;"/><path d="M1512.6,1109.3c-.4-.5-.9-1-1.3-1.5,0,0,0,0,0,0-1.4-2.3-4.4-3.6-3.8-7.2,1.4.9,2.7,1.6,4,2.4,2.5-1.9-1.4-1.7-2-3.3-1.2-2.5-1.6-5.5-2.6-8.2-.6.7-1.2,2-1.9,2.4,2.8,2.8-.6,4.6-1.2,6.8-.7.5-1.3,1.1-2,1.6.5.8,1.6-1,2.3-1.3,2.5-1.2,2.2.9,1.6,1.8-2.2,3.6-8.6,9.7,0,3.8.7,2.1-.2,10.7,2.3,9.3-.2-3-.4-6.1-.6-9.5,1.7.8,2.5,1.5,3.7,1.9.2.4,1.3.6,1.7.9Z" style="fill:#c8c0b9;"/><path d="M1099.2,1105.4c1-.4.2-.9-.2-1.4-1.2.6-.5.8.2,1.4Z" style="fill:#c8c0b9;"/><path d="M1015.5,1153.5c.3.7.6.6,1.2.3-.3-.8-.6-.6-1.2-.3Z" style="fill:#c8c0b9;"/><path d="M1415,967.4c.1.1.3.3.5.4,0-.2-.2-.3-.3-.5,0,0-.2,0-.2,0Z" style="fill:#c8c0b9;"/><path d="M1415.4,967.8c.5.8.9,1.6,1.4,2.4,2.5-.6,0-1.5-1.4-2.4Z" style="fill:#c8c0b9;"/><path d="M802.1,967.1c0,1.5,1.1,1.1,0,0h0Z" style="fill:#c8c0b9;"/><path d="M802,967s0,0,0,0c0,0,0,0,0-.1,0,0,0,0,0,0Z" style="fill:#c8c0b9;"/><path d="M825,1044.1s0,0,0,0c-.8-1.1-.8-1,0,0Z" style="fill:#c8c0b9;"/><path d="M1496.2,1089.6c-.4-.2-.8-.8-1.1-.1.4.2.7.7,1.1.1Z" style="fill:#c8c0b9;"/><path d="M862,1088.3c-.3.1-.5.2-.2.4.4-.2.8-.3.2-.4Z" style="fill:#c8c0b9;"/><path d="M915.3,980.3c-.4,0-.9-.2-1.3-.3.5.4.9,1.2,1.3.3Z" style="fill:#c8c0b9;"/><path d="M1264,1142.8c.7-.4-.1-.5-.7-.6.2.2.5.5.7.6Z" style="fill:#c8c0b9;"/><path d="M1262.9,1142.1c0,0,.2,0,.4.1-.1-.1-.3-.2-.4-.1Z" style="fill:#c8c0b9;"/><path d="M1313.4,1149.5c-.4-.2-.8-.6-1.1,0,.4.2.8.6,1.1,0Z" style="fill:#c8c0b9;"/><path d="M1220.1,1082c-1.9.9-4.7,4.6-5.8,5.3,1.2,2.3,5.5-4.2,7.2-5.2,0-1.5-.7-.6-1.5,0,0,0,.1,0,.2,0Z" style="fill:#c8c0b9;"/><path d="M1203.9,1095.5c-.3.2-.9.4-.9.6.3-.2.6-.4.9-.6Z" style="fill:#c8c0b9;"/><path d="M1369.7,1143.6c-.5-.3-1-.6-1.4-.9-1,.8.9.6,1.4.9Z" style="fill:#c8c0b9;"/><path d="M1087.8,1104.8c.5-.2.9-.3,1.4-.5-.5-1-.9,0-1.4.5Z" style="fill:#c8c0b9;"/><path d="M822.1,1038.3c.1.3.2.8.3,1.1.6-.3,0-.7-.3-1.1Z" style="fill:#c8c0b9;"/><path d="M822,1038c0,0,.1.2.2.2,0-.1,0-.2-.2-.2Z" style="fill:#c8c0b9;"/><path d="M1476.1,998.9c1.2-.9.1-1.5,0,0h0Z" style="fill:#c8c0b9;"/><path d="M1077.1,1054.2l-.3-.3c-2,.7-1.3,1.3.3.3Z" style="fill:#c8c0b9;"/><path d="M1071,1149.4c1.1,2.2,1.7,1.6,3.5-.1-1.8-.9-2.8-1.7-3.5.1Z" style="fill:#c8c0b9;"/><path d="M885.1,1081.9c.1-.5.6-1.1.8-1.6-1-.6-.6.9-.8,1.6Z" style="fill:#c8c0b9;"/><path d="M1153,1030s0,0,0,0c0,0,0,0,0,.2,0,0,0,0,0,0Z" style="fill:#c8c0b9;"/><path d="M1153,1029.9c0-1.5-1-1.1,0,0h0Z" style="fill:#c8c0b9;"/><path d="M911.6,1064.9c-1.5-2.5-2.6-4.2-3.6-5.9.1,1.8-.6,4.6,3.6,5.9Z" style="fill:#c8c0b9;"/><path d="M788,1026c.3-.3.5-.8,1-.5-.3.2-1,.3-1,.5Z" style="fill:#797572;"/></svg>